<svg xmlns="http://www.w3.org/2000/svg" viewBox="0 0 595.3 841.9"><circle cx="194" cy="219.9" r="85" fill="red"/><circle cx="194" cy="220.5" r="62.5" fill="#fff"/><path d="M175.5 181.6v71.1h-17.8v-38.1c0-5.5-.1-8.8-.4-9.9-.3-1.1-1-2-2.2-2.5s-3.8-.9-7.9-.9h-1.8V193c8.6-1.8 15.1-5.6 19.6-11.4h10.5zM214.1 212.4c2.6 1.1 4.6 2.6 6 4.7s2.1 7.1 2.1 15c0 5.7-.6 10-1.7 12.7-1.1 2.7-3.3 5-6.5 6.7-3.2 1.7-7.5 2.6-13 2.6-5.3 0-9.4-.8-12.5-2.5-3.1-1.7-5.3-3.9-6.6-6.6-1.3-2.8-2-7.3-2-13.8 0-4.3.3-8 1-11.2.7-3.2 2.7-5.7 6.2-7.6-2.2-1.1-3.8-2.7-4.9-5-1.1-2.3-1.6-5.2-1.6-8.8 0-6.1 1.7-10.7 5.1-13.8 3.4-3.1 8.5-4.6 15.2-4.6 7.8 0 13.2 1.6 16.2 4.9 3 3.2 4.5 7.9 4.5 13.9 0 3.8-.5 6.6-1.5 8.3-1 1.7-3 3.4-6 5.1zm-9.6 14.3c0-2.7-.3-4.5-.8-5.4-.6-.9-1.4-1.3-2.6-1.3-1.2 0-2 .4-2.5 1.3s-.8 2.7-.8 5.5v9.2c0 3.1.3 5.1.9 5.9s1.5 1.3 2.7 1.3c1.3 0 2.1-.4 2.5-1.3.4-.9.7-2.9.7-6v-9.2zm-.4-29.6c0-2.4-.2-4-.6-4.8-.4-.8-1.2-1.2-2.4-1.2s-2 .4-2.4 1.3c-.4.8-.6 2.4-.6 4.7v5.4c0 2.1.2 3.6.7 4.4.5.8 1.3 1.2 2.4 1.2 1.2 0 2-.4 2.4-1.2.4-.8.6-2.5.6-5v-4.8z"/><g><path d="M236.9 217.3h8.3v6h-8.3v9.4h-6.3v-9.4h-8.3v-6h8.3v-9h6.3v9z"/></g></svg>
