<svg version="1.1" id="Слой_1" xmlns="http://www.w3.org/2000/svg" x="0" y="0" viewBox="0 0 143 42" xml:space="preserve"><style>.st1{display:none;fill:#fff}.st2,.st3{fill:#fefefe}.st3{fill-opacity:.2}</style><g id="Layer_2"><g id="Layer_1-2"><path d="M137.2 41.5H5.8c-2.8.1-5.2-2.2-5.3-5V5.6C.6 2.7 2.9.5 5.8.5h131.5c2.9 0 5.2 2.2 5.3 5.1v30.8c-.1 2.9-2.5 5.1-5.4 5.1z"/><path d="M137.6 1c2.4 0 4.4 2 4.4 4.4v31.3c0 2.4-2 4.4-4.4 4.4H5.4C3 41 1.1 39 1 36.6V5.4C1 3 3 1 5.4 1h132.2zm.1-1H5.3C2.4 0 .1 2.3 0 5.2v31.5C0 39.6 2.4 42 5.3 42h132.4c2.9 0 5.2-2.3 5.3-5.2V5.2c-.1-2.9-2.4-5.2-5.3-5.2z" fill="#a6a6a6"/><path class="st1" d="M41.6 31.9l5.2-13.4 5.3 13.4h-2l-.7-1.8h-5l-.7 1.8h-2.1zm5.3-8.3l-1.7 4.6h3.5l-1.8-4.6zM60.3 27.1v4.8h-1.9v-4.6c0-.4-.1-.8-.3-1.1-.2-.3-.6-.5-1-.5-.5 0-.9.2-1.2.5-.3.5-.5 1-.5 1.6v4h-1.9V24h1.9v.6c1.2-1 2.9-1.1 4.1-.1.6.7.9 1.7.8 2.6zM68.6 31.9v-.6c-.1.1-.2.2-.3.2-.3.1-.5.2-.8.3-.4.1-.9.2-1.3.2-1 0-2-.4-2.8-1.1-.8-.8-1.2-1.8-1.1-2.9 0-1.1.4-2.1 1.1-2.9.7-.8 1.7-1.2 2.8-1.1.4 0 .9.1 1.3.2.3.1.6.2.8.4l.3.2V19h1.9v12.9h-1.9zm-.6-2.2c.8-1 .8-2.4 0-3.4-.9-.8-2.3-.8-3.2 0-.8 1-.8 2.4 0 3.4.9.8 2.3.8 3.2 0zM77.1 25.7c-.6-.1-1.2.1-1.7.5s-.7 1.1-.6 1.7v4H73v-7.8h1.9v.6c.6-.6 1.5-.8 2.3-.8v1.8h-.1zM84.9 25.1c.8.8 1.2 1.8 1.2 2.9 0 1.1-.4 2.1-1.2 2.9-1.6 1.6-4.2 1.6-5.8 0-.8-.8-1.2-1.8-1.2-2.9 0-1.1.4-2.1 1.2-2.9 1.6-1.6 4.2-1.6 5.8 0zm-4.5 1.2c-.4.5-.6 1.1-.6 1.7 0 .6.2 1.2.6 1.7.4.5 1 .7 1.6.6.6 0 1.2-.2 1.6-.6.4-.5.6-1.1.6-1.7 0-.6-.2-1.2-.6-1.7-.4-.5-1-.7-1.6-.6-.6 0-1.2.2-1.6.6zM88.1 22.4v-2.3H90v2.3h-1.9zm0 9.5v-7.8H90v7.8h-1.9zM98.3 31.9v-.6c-.1.1-.2.2-.3.2-.3.1-.5.2-.8.3-.4.1-.9.2-1.3.2-1 0-2-.4-2.8-1.1-.8-.8-1.2-1.8-1.1-2.9 0-1.1.4-2.1 1.1-2.9.7-.8 1.7-1.2 2.8-1.1.4 0 .9.1 1.3.2.3.1.6.2.8.4l.3.2V19h1.9v12.9h-1.9zm-.6-2.2c.8-1 .8-2.4 0-3.4-.9-.8-2.3-.8-3.2 0-.8 1-.8 2.4 0 3.4.9.8 2.3.8 3.2 0zM107 31.9l5.2-13.4 5.3 13.4h-2l-.7-1.8h-5l-.7 1.8H107zm5.3-8.3l-1.7 4.6h3.5l-1.8-4.6zM120.9 31.3v4H119V24.1h1.9v.6c.1-.1.2-.2.3-.2.2-.2.5-.3.8-.3.4-.1.9-.2 1.3-.2 1 0 2 .4 2.8 1.1.7.8 1.1 1.8 1.1 2.9 0 1.1-.4 2.1-1.1 2.9-.8.7-1.8 1.1-2.8 1.1-.4 0-.9-.1-1.3-.2-.3-.1-.6-.2-.8-.4l-.3-.1zm.6-5c-.8 1-.8 2.4 0 3.4.9.8 2.3.8 3.2 0 .8-1 .8-2.4 0-3.4-.9-.8-2.3-.8-3.2 0zM131.1 31.3v4h-1.9V24.1h1.9v.6c.1-.1.2-.2.3-.2.2-.2.5-.3.8-.3.4-.1.9-.2 1.3-.2 1 0 2 .4 2.8 1.1.7.8 1.1 1.8 1.1 2.9 0 1.1-.4 2.1-1.1 2.9-.8.7-1.8 1.1-2.8 1.1-.4 0-.9-.1-1.3-.2-.3-.1-.6-.2-.8-.4l-.3-.1zm.5-5c-.8 1-.8 2.4 0 3.4.9.8 2.3.8 3.2 0 .8-1 .8-2.4 0-3.4-.9-.8-2.3-.8-3.2 0zM25.6 9.8l1.3-2c.1-.1.1-.3 0-.3-.1-.1-.2 0-.3 0v.1l-1.4 2a7.8 7.8 0 00-6 0l-1.4-2c-.1-.1-.2-.2-.3-.1-.1.1-.1.2 0 .3l1.3 2c-2.1.9-3.5 2.8-3.8 5.1h14.6c-.4-2.2-1.9-4.1-4-5.1zM19 12.9c-.4 0-.8-.4-.8-.8s.4-.8.8-.8.8.4.8.8c.1.5-.3.8-.8.8zm6.2 0c-.4 0-.8-.4-.8-.8s.4-.8.8-.8.8.4.8.8-.3.8-.8.8zM12.2 16c-.9 0-1.6.7-1.6 1.6v6.6c0 .9.7 1.6 1.6 1.6.9 0 1.6-.7 1.6-1.6v-6.6c0-.8-.6-1.6-1.4-1.6h-.2zM14.8 27.9c0 .7.6 1.3 1.3 1.3h1.5v3.7c0 .9.7 1.6 1.6 1.6s1.6-.7 1.6-1.6v-3.7h2.5v3.7c0 .9.7 1.6 1.6 1.6s1.6-.7 1.6-1.6v-3.7H28c.7 0 1.3-.6 1.3-1.3V16H14.8v11.9zM32 16c-.9 0-1.6.7-1.6 1.6v6.6c0 .9.7 1.6 1.6 1.6s1.6-.7 1.6-1.6v-6.6c0-.9-.7-1.6-1.6-1.6zM42.3 12.9V5.8h2.1c.6 0 1.2.1 1.7.4.5.3.9.7 1.1 1.2.3.6.4 1.2.4 1.8v.4c0 .6-.1 1.2-.4 1.8-.3.5-.7.9-1.2 1.2-.5.3-1.1.4-1.7.4h-2zm1.3-6.1v5.1h.8c.6 0 1.1-.2 1.5-.6.4-.5.6-1.1.5-1.8v-.3c0-.6-.1-1.3-.5-1.8-.4-.4-.9-.6-1.5-.6h-.8zM48.5 10.2c0-.5.1-1 .3-1.4.2-.4.5-.8.9-1 .4-.2.9-.3 1.3-.3.7 0 1.3.2 1.7.7.4.5.7 1.1.7 1.8v.3c0 .5-.1 1-.3 1.4-.2.4-.5.7-.9.9-.3.3-.8.4-1.2.4-.7 0-1.3-.2-1.8-.8-.5-.5-.7-1.2-.7-2zm1.2.1c0 .4.1.9.3 1.3.2.3.6.5.9.5.4 0 .7-.2.9-.5.3-.4.4-.9.3-1.4 0-.5-.1-.9-.3-1.3-.2-.3-.5-.5-.9-.5s-.7.2-.9.5c-.2.4-.3.9-.3 1.4zM59.1 11.3l.8-3.6h1.2L59.7 13h-1l-1.1-3.6-1.1 3.6h-1L54 7.6h1.2l.8 3.6 1.1-3.6h.9l1.1 3.7zM63 7.6v.6c.4-.5.9-.7 1.5-.7 1.1 0 1.7.6 1.7 1.9v3.5H65V9.5c0-.3-.1-.5-.2-.8-.2-.2-.4-.3-.7-.2-.5 0-.9.2-1.1.7V13h-1.2V7.6H63zM68.7 12.9h-1.2V5.4h1.2v7.5zM69.8 10.2c0-.5.1-1 .3-1.4.2-.4.5-.8.9-1 .4-.2.8-.3 1.3-.3.7 0 1.3.2 1.8.7.4.5.7 1.1.7 1.8v.3c0 .5-.1 1-.3 1.4-.2.4-.5.7-.9.9-.4.2-.8.4-1.3.3-.7 0-1.3-.2-1.8-.8-.5-.4-.8-1.2-.7-1.9zm1.2.1c0 .5.1.9.3 1.3.2.3.6.5.9.5.4 0 .7-.2.9-.5.3-.4.4-.9.3-1.4 0-.5-.1-.9-.3-1.3-.2-.3-.6-.5-.9-.5-.4 0-.7.2-.9.5-.2.4-.4.9-.3 1.4zM78.8 12.9c-.1-.2-.1-.3-.1-.5-.7.7-1.9.8-2.7.1-.3-.3-.5-.7-.5-1.1 0-.5.2-1 .6-1.3.5-.3 1.2-.5 1.8-.4h.7v-.4c0-.2-.1-.5-.2-.7-.2-.2-.4-.3-.7-.2-.2 0-.5.1-.7.2-.2.1-.3.3-.3.5h-1.2c0-.3.1-.6.3-.8.2-.3.5-.5.8-.6.4-.1.7-.2 1.1-.2.5 0 1.1.1 1.5.5.4.3.6.8.6 1.3v2.4c0 .4.1.8.2 1.1v.1h-1.2zm-1.3-.9c.2 0 .5-.1.7-.2.2-.1.4-.3.5-.4v-1H78c-.3 0-.7.1-1 .2-.2.1-.3.4-.3.6 0 .2.1.4.2.5.2.3.4.4.6.3zM80.9 10.2c0-.7.2-1.4.6-2 .4-.5 1-.7 1.6-.7.5 0 1 .2 1.3.6V5.4h1.2v7.5h-1.1l-.1-.6c-.4.5-.9.7-1.5.7s-1.2-.3-1.5-.8c-.4-.5-.6-1.3-.5-2zm1.2.1c0 .4.1.9.3 1.3.2.3.5.5.9.4.5 0 .9-.2 1.1-.6V9.1c-.2-.4-.6-.6-1-.6s-.7.2-.9.5c-.3.4-.5.8-.4 1.3z"/></g></g><g id="Слой_x0020_1"><path class="st2" d="M51.4 12c0 .8-.2 1.5-.7 2-.6.6-1.3.9-2.2.9-.9 0-1.6-.3-2.2-.9-.6-.6-.9-1.3-.9-2.2 0-.9.3-1.6.9-2.2.6-.6 1.3-.9 2.2-.9.4 0 .8.1 1.2.3.4.2.7.4.9.7l-.5.5c-.4-.5-.9-.7-1.6-.7-.6 0-1.2.2-1.6.7-.5.4-.7 1-.7 1.7s.2 1.3.7 1.7 1 .7 1.6.7c.7 0 1.2-.2 1.7-.7.3-.3.5-.7.5-1.2h-2.2v-.8h2.9v.4zm4.5-2.5h-2.7v1.9h2.5v.7h-2.5V14h2.7v.8h-3.4v-6H56l-.1.7zm3.2 5.2h-.8V9.5h-1.7v-.7h4.1v.7H59v5.2zm4.6 0V8.8h.8v5.9h-.8zm4.1 0H67V9.5h-1.7v-.7h4v.7h-1.7l.2 5.2zm9.4-.8c-.6.6-1.3.9-2.2.9-.9 0-1.6-.3-2.2-.9-.6-.6-.9-1.3-.9-2.2 0-.9.3-1.6.9-2.2s1.3-.9 2.2-.9c.9 0 1.6.3 2.2.9.6.6.9 1.3.9 2.2s-.3 1.7-.9 2.2zm-3.8-.4c.4.4 1 .7 1.6.7s1.2-.2 1.6-.7c.4-.4.7-1 .7-1.7s-.2-1.3-.7-1.7c-.4-.4-1-.7-1.6-.7s-1.2.2-1.6.7c-.4.4-.7 1-.7 1.7s.2 1.3.7 1.7zm5.7 1.2V8.8h.9l2.9 4.6V8.8h.8v5.9h-.8l-3.1-4.8v4.8h-.7z"/><path class="st2" d="M51.5 12c0 .4-.1.8-.2 1.1-.1.3-.3.7-.6.9-.3.3-.6.5-1 .7-.4.2-.8.2-1.2.2s-.9-.1-1.2-.2c-.4-.2-.7-.4-1-.7-.3-.3-.5-.6-.7-1-.2-.4-.2-.8-.2-1.2s.1-.9.2-1.2.4-.7.7-1c.3-.3.6-.5 1-.7.4-.2.8-.2 1.2-.2.2 0 .4 0 .6.1.2 0 .4.1.6.2.2.1.4.2.5.3.2.1.3.2.4.4v.1l-.6.6v-.1c-.2-.2-.4-.4-.6-.5-.2-.1-.5-.2-.9-.2-.3 0-.6.1-.9.2-.2.1-.5.3-.6.5-.2.2-.4.4-.5.7-.1.3-.2.6-.2.9 0 .3 0 .7.2.9.1.3.3.5.5.7.2.2.5.4.7.5.2.1.5.2.8.2.3 0 .6-.1.9-.2.3-.1.5-.3.7-.5.1-.1.3-.3.3-.5.1-.2.1-.3.1-.5h-2.2v-1h3.1v.5zm-.4 1c.1-.3.2-.7.2-1.1v-.3h-2.7v.6h2.2v.1c0 .2 0 .5-.1.7-.1.2-.2.4-.4.6-.3.3-.5.4-.8.6-.3.1-.6.2-.9.2-.3 0-.6-.1-.9-.2-.3-.1-.5-.3-.8-.5-.2-.2-.4-.4-.5-.7-.1-.3-.2-.6-.2-1s.1-.7.2-1c.1-.3.3-.5.5-.7.2-.2.4-.4.7-.5.3-.1.6-.2.9-.2.4 0 .7.1.9.2.2.1.5.3.6.5l.4-.4-.3-.3c-.1-.1-.3-.2-.5-.3-.2-.1-.4-.2-.6-.2-.2-.1-.4-.1-.6-.1-.4 0-.8.1-1.2.2-.3.1-.7.4-.9.6-.3.3-.5.6-.6.9-.1.3-.2.7-.2 1.2 0 .4.1.8.2 1.2.1.3.4.7.6.9.3.3.6.5.9.6.3.1.7.2 1.2.2.4 0 .8-.1 1.2-.2.3-.1.7-.4.9-.6.3-.4.5-.6.6-1zm4.8-3.4h-2.6v1.7h2.5v.9h-2.5v1.7H56v1h-3.6V8.8H56l-.1.8zm-2.7-.2h2.6v-.5h-3.3v5.7h3.2V14H53v-2h2.5v-.5H53l.2-2.1zm5.9 5.4h-.9V9.6h-1.7v-.9h4.3v.9h-1.7v5.2zm-.7-.2h.6V9.4h1.7v-.5h-3.9v.5h1.7v5.2zm5.2.1v-6h1v6.1l-1-.1zm.2-5.8v5.7h.6V8.9h-.6zm4 5.9h-.9V9.6h-1.7v-.9h4.2v.9h-1.7v5.2zm-.7-.2h.5V9.4h1.7v-.5h-3.8v.5h1.7v5.2zm10.1-.6c-.3.3-.6.5-1 .7-.4.2-.8.2-1.2.2s-.9-.1-1.2-.2c-.4-.2-.7-.4-1-.7-.3-.3-.5-.6-.7-1-.2-.4-.2-.8-.2-1.2s.1-.9.2-1.2c.2-.4.4-.7.7-1 .3-.3.6-.5 1-.7.4-.2.8-.2 1.2-.2s.9.1 1.2.2c.4.2.7.4 1 .7s.5.6.7 1c.2.4.2.8.2 1.2s-.1.9-.2 1.2c-.1.4-.4.7-.7 1zm-1 .5c.3-.1.7-.4.9-.6.3-.3.5-.6.6-.9.1-.3.2-.7.2-1.2s-.1-.8-.2-1.2c-.1-.3-.4-.7-.6-.9-.3-.3-.6-.5-.9-.6-.3-.1-.7-.2-1.2-.2-.4 0-.8.1-1.2.2-.3.1-.7.4-.9.6-.3.3-.5.6-.6.9-.2.4-.3.7-.3 1.2 0 .4.1.8.2 1.2.1.3.4.7.6.9.3.3.6.5.9.6.3.1.7.2 1.2.2s.9 0 1.3-.2zm-2.7-1.1c.2.2.4.4.7.5.3.1.5.1.8.1.3 0 .6-.1.9-.2.2-.1.5-.3.6-.5.2-.2.4-.4.5-.7.1-.3.2-.6.2-.9 0-.3-.1-.7-.2-.9-.1-.3-.3-.5-.5-.7-.2-.2-.4-.4-.7-.5-.2-.1-.5-.2-.8-.2-.3 0-.6.1-.9.2-.2.1-.5.3-.6.5-.2.2-.4.5-.5.7-.1.3-.2.5-.2.9 0 .3.1.7.2.9.1.4.3.6.5.8zm.6.7c-.3-.1-.6-.3-.8-.5-.2-.2-.4-.5-.5-.7-.1-.3-.2-.6-.2-1 0-.3.1-.7.2-.9.1-.3.3-.6.5-.8.2-.2.4-.4.7-.5.3-.1.6-.2.9-.2.3 0 .6.1.9.2.3.1.6.3.8.5.2.2.4.4.5.7.1.3.2.6.2 1 0 .3-.1.7-.2.9-.1.3-.3.6-.5.8-.2.2-.4.4-.7.5-.3.1-.6.2-.9.2-.3-.1-.6-.1-.9-.2zm4.9.6v-6h1l2.7 4.4V8.7h1v6.1h-.9l-2.9-4.6v4.6l-.9-.1zm.2-5.8v5.7h.5v-5l3.2 5.1h.6V8.9H83v4.9l-3-4.9h-.8zM71.7 23.4c-2.4 0-4.2 1.8-4.2 4.2 0 2.4 1.9 4.2 4.2 4.2 2.4 0 4.2-1.8 4.2-4.2.1-2.5-1.8-4.2-4.2-4.2zm0 6.7c-1.3 0-2.4-1.1-2.4-2.6s1.1-2.6 2.4-2.6c1.3 0 2.4 1 2.4 2.6 0 1.5-1.1 2.6-2.4 2.6zm-9.1-6.7c-2.4 0-4.2 1.8-4.2 4.2 0 2.4 1.9 4.2 4.2 4.2 2.4 0 4.2-1.8 4.2-4.2 0-2.5-1.9-4.2-4.2-4.2zm0 6.7c-1.3 0-2.4-1.1-2.4-2.6s1.1-2.6 2.4-2.6c1.3 0 2.4 1 2.4 2.6-.1 1.5-1.1 2.6-2.4 2.6zm-11-5.4v1.8h4.2c-.1 1-.5 1.8-1 2.3-.6.6-1.6 1.3-3.2 1.3C49 30 47 27.9 47 25.3s2.1-4.7 4.6-4.7c1.4 0 2.5.6 3.3 1.3l1.3-1.3c-1.1-1-2.5-1.8-4.4-1.8-3.5 0-6.6 3-6.6 6.5s3 6.5 6.6 6.5c2 0 3.3-.6 4.5-1.9 1.2-1.2 1.6-2.9 1.6-4.1 0-.4 0-.8-.1-1.1h-6.2zm44.8 1.4c-.4-1-1.4-2.7-3.6-2.7s-3.9 1.7-3.9 4.2c0 2.4 1.8 4.2 4.1 4.2 1.9 0 3.1-1.2 3.4-1.9l-1.4-1c-.5.7-1.1 1.2-2.1 1.2s-1.6-.4-2.1-1.3l5.6-2.4v-.3zm-5.7 1.4c0-1.6 1.3-2.5 2.2-2.5.7 0 1.4.4 1.6.9l-3.8 1.6zm-4.7 4h1.9V19.2H86v12.3zm-2.9-7.2c-.5-.5-1.3-1-2.3-1-2.1 0-4 1.9-4 4.2s1.9 4.1 4 4.1c1 0 1.8-.5 2.2-1h.1v.6c0 1.6-.9 2.5-2.3 2.5-1.1 0-1.9-.8-2.1-1.5l-1.5.8c.5 1.1 1.7 2.5 3.7 2.5 2.2 0 3.9-1.3 3.9-4.3v-7.5H83v.6zm-2.2 5.8c-1.3 0-2.4-1.1-2.4-2.6s1.1-2.6 2.4-2.6c1.3 0 2.3 1.1 2.3 2.6s-1 2.6-2.3 2.6zM105 19.2h-4.4v12.3h1.9v-4.6h2.6c2.1 0 4-1.5 4-3.8s-2.1-3.9-4.1-3.9zm.1 5.9h-2.7v-4.2h2.7c1.4 0 2.2 1.2 2.2 2.1-.2 1-1 2.1-2.2 2.1zm11.3-1.8c-1.4 0-2.8.6-3.3 1.9l1.7.7c.4-.7 1-.9 1.7-.9 1 0 1.9.6 2 1.6v.1c-.3-.2-1.1-.5-1.9-.5-1.8 0-3.5 1-3.5 2.8 0 1.7 1.5 2.8 3.1 2.8 1.3 0 1.9-.6 2.4-1.2h.1v1h1.8v-4.7c-.4-2.3-2.1-3.6-4.1-3.6zm-.2 6.8c-.6 0-1.5-.3-1.5-1.1 0-1 1.1-1.3 2-1.3.8 0 1.2.2 1.7.4-.2 1.2-1.2 2-2.2 2zm10.3-6.5l-2.1 5.3h-.1l-2.2-5.3h-2l3.2 7.5-1.9 4.1h1.9l5-11.6h-1.8zM110 31.5h1.9V19.2H110v12.3zM14.9 9.3c-.3.3-.4.8-.4 1.4v21.8c0 .6.2 1.1.5 1.4l.1.1 12.2-12.2v-.2L14.9 9.3zM31.9 25.9l-4-4v-.3l4-4 .1.1 4.8 2.8c1.4.8 1.4 2.1 0 2.9l-4.9 2.5zM31.7 26.1L27.5 22 15.2 34.3c.5.5 1.2.5 2.1.1l14.4-8.3zM31.7 17.3L17.3 9.1c-.9-.5-1.6-.4-2.1.1l12.3 12.2 4.2-4.1z"/><path class="st3" d="M31.3 25.7l-14.3 8c-.8.5-1.5.4-2 0l-.1.1.1.1c.5.4 1.2.5 2 0l14.3-8.2zM14.9 33.7c-.3-.3-.4-.8-.4-1.4v.1c0 .6.2 1.1.4 1.3zm21.3-10.8l-4.9 2.8.1.1 4.8-2.9c.7-.3 1-.8 1-1.3 0 .5-.4.9-1 1.3z"/></g></svg>
