<svg version="1.1" id="AppStoreHover" xmlns="http://www.w3.org/2000/svg" x="0" y="0" viewBox="0 0 143 42" xml:space="preserve"><style>.st2{fill:#fff}</style><path id="line" d="M137.9 42H5c-2.8 0-5-2.2-5-5V5c0-2.8 2.2-5 5-5h132.9c2.8-.1 5 2.1 5.1 4.9V37c0 2.8-2.2 5-5 5h-.1z" fill="#a6a6a6"/><path id="path-1" d="M137.9 41H5.1c-2.2.1-4-1.7-4.1-3.9V5c0-2.2 1.8-4 4-4h133c2.2 0 4.1 1.8 4.1 4v32c-.1 2.2-1.9 4-4.2 4z"/><path id="logo" class="st2" d="M31.9 20.8c0-3.4 2.8-5 2.9-5.1-1.1-1.7-3-2.7-5-2.7-2-.2-4.1 1.2-5.1 1.2-1.1 0-2.7-1.2-4.5-1.2-2.3 0-4.4 1.3-5.5 3.4-2.4 4.1-.6 10.2 1.7 13.5 1.1 1.6 2.5 3.4 4.2 3.4 1.7-.1 2.4-1.1 4.4-1.1 2.1 0 2.7 1.1 4.4 1 1.8 0 3-1.6 4.1-3.3 1.3-1.9 1.9-3.7 1.9-3.8 0 0-3.5-1.3-3.5-5.3zm-3.4-10c1-1.2 1.5-2.7 1.4-4.3-1.3.1-3 .9-4 2-.9 1-1.6 2.6-1.4 4.1 1.5.2 3-.7 4-1.8z"/><path id="text" class="st2" d="M56.7 33.1h-2.4L53 29h-4.6l-1.3 4.1h-2.3l4.6-14h2.8l4.5 14zm-4.1-5.9l-1.2-3.6-.7-2.6-.7 2.6-1.2 3.6h3.8zm15.8.7c.1 1.5-.4 3-1.4 4.1-.8.9-1.9 1.3-3.1 1.3-1.3 0-2.3-.5-2.9-1.4v5.3h-2.3V26.3l-.1-3.3h2l.1 1.6c.7-1.2 2-1.9 3.4-1.8 1.2 0 2.2.5 3 1.4.9 1 1.4 2.3 1.3 3.7zm-2.3.1c0-1-.2-1.8-.7-2.4-.5-.7-1.1-1-2-1-.6 0-1.1.2-1.5.5-.5.4-.7.8-.9 1.4l-.1.7v1.7c0 .7.2 1.3.7 1.9.5.5 1 .8 1.8.8s1.5-.3 2-1c.5-.8.7-1.7.7-2.6zm13.9-.1c.1 1.5-.4 3-1.4 4.1-.8.9-1.9 1.3-3.1 1.3-1.3 0-2.3-.5-2.9-1.4v5.3h-2.3V26.3l-.1-3.3h2l.2 1.6c.7-1.2 2-1.9 3.4-1.8 1.2 0 2.2.5 3 1.4.8.9 1.2 2.2 1.2 3.7zm-2.3.1c0-1-.2-1.8-.7-2.4-.5-.7-1.1-1-2-1-.6 0-1.1.2-1.5.5-.5.4-.7.8-.9 1.4l-.1.7v1.7c0 .7.2 1.3.7 1.9.5.5 1 .8 1.8.8s1.5-.3 2-1 .7-1.5.7-2.6zm15.4 1.1c0 1.2-.4 2.2-1.2 2.9-.9.8-2.2 1.2-3.8 1.2-1.5 0-2.7-.3-3.6-.9l.5-1.9c1 .6 2.1.9 3.3.9.8 0 1.5-.2 2-.6.5-.4.7-.9.7-1.5s-.2-1-.6-1.4c-.4-.4-1-.7-1.9-1.1-2.5-.9-3.7-2.2-3.7-4 0-1.1.4-2.1 1.3-2.8.9-.7 2-1.1 3.4-1.1 1.3 0 2.3.2 3.2.7l-.6 1.8c-.8-.4-1.8-.6-2.7-.6-.8 0-1.4.2-1.9.6-.4.3-.6.8-.6 1.3 0 .6.2 1 .6 1.4l2 1.1c1 .4 1.9.9 2.7 1.7.6.6.9 1.4.9 2.3zm7.4-4.4H98v4.9c0 1.2.4 1.9 1.3 1.9l1-.1.1 1.7c-.4.2-1 .2-1.8.2-.9 0-1.6-.3-2.1-.8s-.8-1.4-.8-2.7v-5.1h-1.3V23h1.5v-1.8l2.2-.7V23h2.5v1.7h-.1zm11.2 3.2c0 1.5-.4 2.8-1.3 3.8s-2.2 1.5-3.7 1.5-2.7-.5-3.6-1.5c-.9-1-1.3-2.2-1.3-3.7 0-1.6.5-2.8 1.4-3.8s2.1-1.5 3.7-1.5c1.5 0 2.7.5 3.6 1.5.8 1 1.2 2.2 1.2 3.7zm-2.3.1c0-.9-.2-1.7-.6-2.4-.5-.8-1.1-1.2-2-1.2s-1.6.4-2.1 1.2c-.4.7-.6 1.5-.6 2.4 0 .9.2 1.7.6 2.4.5.8 1.2 1.2 2 1.2.9 0 1.5-.4 2-1.2.5-.6.7-1.5.7-2.4zm9.7-3l-.7-.1c-.7 0-1.4.3-1.8.9-.4.5-.6 1.2-.6 2v5.3h-2.3v-6.9l-.1-3.2h2l.1 1.9h.1c.2-.6.6-1.2 1.1-1.6.5-.4 1-.5 1.6-.5h.6V25zm10.1 2.6l-.1 1h-6.8c0 .9.3 1.7 1 2.3.6.5 1.3.7 2.2.7 1 0 1.9-.2 2.7-.5l.4 1.6c-1.1.4-2.2.6-3.4.6-1.4.1-2.7-.4-3.7-1.4-.9-1-1.4-2.3-1.3-3.7 0-1.5.4-2.8 1.3-3.8.8-1.1 2.1-1.6 3.5-1.6 1.5 0 2.6.5 3.3 1.6.6.8.9 1.9.9 3.2zM127 27c0-.6-.1-1.2-.4-1.7-.4-.6-1.1-.9-1.8-.9s-1.3.3-1.8.9c-.4.5-.6 1.1-.7 1.7h4.7z"/><path id="top" class="st2" d="M51.9 10.5c0 1.2-.4 2.2-1.1 2.8s-1.7.9-3 .9l-1.6-.1V7.3l1.9-.1c1.2 0 2.1.3 2.7.8.8.6 1.1 1.4 1.1 2.5zm-1.2 0c0-.8-.2-1.4-.6-1.8-.4-.4-1.1-.6-1.9-.6l-.9.1v5.1h.8c.8 0 1.5-.2 2-.7.4-.5.6-1.2.6-2.1zm7.4 1.1c0 .8-.2 1.4-.7 1.9s-1.1.8-1.8.8-1.3-.2-1.7-.7c-.5-.6-.7-1.2-.7-1.9 0-.8.2-1.4.7-1.9.4-.5 1-.7 1.8-.7.7 0 1.3.2 1.8.7.4.4.6 1 .6 1.8zm-1.2 0c0-.5-.1-.8-.3-1.2-.2-.4-.6-.6-1-.6s-.8.2-1 .6l-.3 1.2c0 .5.1.8.3 1.2.2.4.6.6 1 .6s.8-.2 1-.6c.2-.3.3-.7.3-1.2zm9.5-2.4l-1.6 4.9h-1l-.6-2.1-.4-1.6-.4 1.6-.7 2.1h-1l-1.5-4.9h1.1l.6 2.4.3 1.6.4-1.6.7-2.4h.9l.7 2.3.4 1.6.3-1.6.6-2.3h1.2zm5.7 4.9H71v-2.8c0-.9-.3-1.3-1-1.3-.3 0-.6.1-.8.4-.2.2-.3.5-.3.8v2.9h-1.1V9.2h1l.1.8.6-.6c.3-.2.6-.3 1-.3.5 0 .9.1 1.2.4.4.4.6.9.6 1.6v3h-.2zm3.1 0h-1.1V6.9h1.1v7.2zm6.5-2.5c0 .8-.2 1.4-.7 1.9s-1.1.8-1.8.8-1.3-.2-1.7-.7c-.4-.5-.7-1.1-.7-1.8 0-.8.2-1.4.7-1.9.4-.5 1.1-.7 1.8-.7s1.3.2 1.8.7c.4.3.6.9.6 1.7zm-1.1 0c0-.5-.1-.8-.3-1.2-.2-.4-.6-.6-1-.6s-.8.2-1 .6c-.2.3-.3.7-.3 1.2s.1.8.3 1.2c.2.4.6.6 1 .6s.8-.2 1-.6c.2-.3.3-.7.3-1.2zm6.5 2.5h-1l-.1-.6c-.3.5-.8.7-1.5.7-.5 0-.9-.1-1.1-.4-.3-.3-.4-.6-.4-1 0-.6.3-1.1.8-1.4.6-.4 1.4-.5 2.1-.5v-.1c0-.7-.3-1-1-1-.5 0-.9.1-1.3.4l-.2-.7c.5-.3 1.1-.4 1.7-.4 1.3 0 2 .7 2 2v3zm-1.2-1.7v-.8c-1.2 0-1.8.3-1.8 1l.2.6.6.2.7-.2.4-.6-.1-.2zm7.5 1.7h-1l-.1-.8c-.3.6-.8.9-1.6.9-.6 0-1.1-.2-1.5-.7-.4-.5-.6-1.1-.6-1.8 0-.8.2-1.4.6-1.9.4-.5.9-.7 1.5-.7.7 0 1.1.2 1.4.7V6.9h1.1v5.9l.2 1.3zM92.2 12v-1.1l-.4-.7c-.2-.2-.4-.3-.7-.3-.4 0-.7.2-1 .5-.2.3-.4.7-.4 1.3 0 .5.1.9.3 1.2s.6.5 1 .5.7-.1.9-.4c.2-.3.3-.6.3-1zm10.7-.4c0 .8-.2 1.4-.7 1.9s-1.1.8-1.8.8-1.3-.2-1.7-.7-.7-1.1-.7-1.8c0-.8.2-1.4.7-1.9.4-.6 1-.8 1.8-.8.7 0 1.3.2 1.8.7.3.4.6 1 .6 1.8zm-1.2 0c0-.5-.1-.8-.3-1.2-.2-.4-.6-.6-1-.6s-.8.2-1 .6c-.2.3-.3.7-.3 1.2s.1.8.3 1.2c.2.4.6.6 1 .6s.8-.2 1-.6c.2-.3.3-.7.3-1.2zm7.1 2.5h-1.1v-2.8c0-.9-.3-1.3-1-1.3-.3 0-.6.1-.8.4-.2.2-.3.5-.3.8v2.9h-1.1V9.2h1v.7l.6-.6c.3-.2.6-.3 1-.3.5 0 .9.1 1.2.4.4.4.6.9.6 1.6l-.1 3.1zm7.5-4.1h-1.2v2.4c0 .6.2.9.6.9l.5-.1v.8l-.9.1c-.4 0-.8-.1-1-.4s-.4-.7-.4-1.3V10h-.7v-.8h.7v-1l1.1-.3v1.2h1.2l.1.9zm5.8 4.1H121v-2.8c0-.9-.3-1.3-1-1.3-.5 0-.9.3-1.1.8l-.1.4v3h-1.1V6.9h1.1v3c.3-.5.8-.8 1.5-.8.5 0 .8.1 1.1.4.4.4.6.9.6 1.7l.1 2.9zm6.1-2.7v.5h-3.3c0 .5.2.9.5 1.1.3.2.6.3 1.1.3l1.3-.2.2.8c-.5.2-1 .3-1.7.3-.8 0-1.4-.2-1.8-.7s-.7-1.1-.7-1.8.2-1.4.6-1.9 1-.8 1.7-.8 1.3.3 1.6.8c.3.5.5 1 .5 1.6zm-1.1-.3l-.2-.8c-.2-.3-.5-.5-.9-.5s-.7.1-.9.4c-.2.2-.3.5-.3.9h2.3z"/></svg>
