<svg xmlns="http://www.w3.org/2000/svg" xmlns:xlink="http://www.w3.org/1999/xlink"><symbol id="18plus" viewBox="0 0 595.3 841.9"><circle cx="194" cy="219.9" r="85" fill="red"/><circle cx="194" cy="220.5" r="62.5" fill="#fff"/><path d="M175.5 181.6v71.1h-17.8v-38.1c0-5.5-.1-8.8-.4-9.9-.3-1.1-1-2-2.2-2.5s-3.8-.9-7.9-.9h-1.8V193c8.6-1.8 15.1-5.6 19.6-11.4h10.5zM214.1 212.4c2.6 1.1 4.6 2.6 6 4.7s2.1 7.1 2.1 15c0 5.7-.6 10-1.7 12.7-1.1 2.7-3.3 5-6.5 6.7-3.2 1.7-7.5 2.6-13 2.6-5.3 0-9.4-.8-12.5-2.5-3.1-1.7-5.3-3.9-6.6-6.6-1.3-2.8-2-7.3-2-13.8 0-4.3.3-8 1-11.2.7-3.2 2.7-5.7 6.2-7.6-2.2-1.1-3.8-2.7-4.9-5-1.1-2.3-1.6-5.2-1.6-8.8 0-6.1 1.7-10.7 5.1-13.8 3.4-3.1 8.5-4.6 15.2-4.6 7.8 0 13.2 1.6 16.2 4.9 3 3.2 4.5 7.9 4.5 13.9 0 3.8-.5 6.6-1.5 8.3-1 1.7-3 3.4-6 5.1zm-9.6 14.3c0-2.7-.3-4.5-.8-5.4-.6-.9-1.4-1.3-2.6-1.3-1.2 0-2 .4-2.5 1.3s-.8 2.7-.8 5.5v9.2c0 3.1.3 5.1.9 5.9s1.5 1.3 2.7 1.3c1.3 0 2.1-.4 2.5-1.3.4-.9.7-2.9.7-6v-9.2zm-.4-29.6c0-2.4-.2-4-.6-4.8-.4-.8-1.2-1.2-2.4-1.2s-2 .4-2.4 1.3c-.4.8-.6 2.4-.6 4.7v5.4c0 2.1.2 3.6.7 4.4.5.8 1.3 1.2 2.4 1.2 1.2 0 2-.4 2.4-1.2.4-.8.6-2.5.6-5v-4.8z"/><g><path d="M236.9 217.3h8.3v6h-8.3v9.4h-6.3v-9.4h-8.3v-6h8.3v-9h6.3v9z"/></g></symbol><symbol id="android-market" viewBox="0 0 143 42"><style>.st1{display:none;fill:#fff}.st2,.st3{fill:#fefefe}.st3{fill-opacity:.2}</style><g id="Layer_2"><g id="Layer_1-2"><path d="M137.2 41.5H5.8c-2.8.1-5.2-2.2-5.3-5V5.6C.6 2.7 2.9.5 5.8.5h131.5c2.9 0 5.2 2.2 5.3 5.1v30.8c-.1 2.9-2.5 5.1-5.4 5.1z"/><path d="M137.6 1c2.4 0 4.4 2 4.4 4.4v31.3c0 2.4-2 4.4-4.4 4.4H5.4C3 41 1.1 39 1 36.6V5.4C1 3 3 1 5.4 1h132.2zm.1-1H5.3C2.4 0 .1 2.3 0 5.2v31.5C0 39.6 2.4 42 5.3 42h132.4c2.9 0 5.2-2.3 5.3-5.2V5.2c-.1-2.9-2.4-5.2-5.3-5.2z" fill="#a6a6a6"/><path class="st1" d="M41.6 31.9l5.2-13.4 5.3 13.4h-2l-.7-1.8h-5l-.7 1.8h-2.1zm5.3-8.3l-1.7 4.6h3.5l-1.8-4.6zM60.3 27.1v4.8h-1.9v-4.6c0-.4-.1-.8-.3-1.1-.2-.3-.6-.5-1-.5-.5 0-.9.2-1.2.5-.3.5-.5 1-.5 1.6v4h-1.9V24h1.9v.6c1.2-1 2.9-1.1 4.1-.1.6.7.9 1.7.8 2.6zM68.6 31.9v-.6c-.1.1-.2.2-.3.2-.3.1-.5.2-.8.3-.4.1-.9.2-1.3.2-1 0-2-.4-2.8-1.1-.8-.8-1.2-1.8-1.1-2.9 0-1.1.4-2.1 1.1-2.9.7-.8 1.7-1.2 2.8-1.1.4 0 .9.1 1.3.2.3.1.6.2.8.4l.3.2V19h1.9v12.9h-1.9zm-.6-2.2c.8-1 .8-2.4 0-3.4-.9-.8-2.3-.8-3.2 0-.8 1-.8 2.4 0 3.4.9.8 2.3.8 3.2 0zM77.1 25.7c-.6-.1-1.2.1-1.7.5s-.7 1.1-.6 1.7v4H73v-7.8h1.9v.6c.6-.6 1.5-.8 2.3-.8v1.8h-.1zM84.9 25.1c.8.8 1.2 1.8 1.2 2.9 0 1.1-.4 2.1-1.2 2.9-1.6 1.6-4.2 1.6-5.8 0-.8-.8-1.2-1.8-1.2-2.9 0-1.1.4-2.1 1.2-2.9 1.6-1.6 4.2-1.6 5.8 0zm-4.5 1.2c-.4.5-.6 1.1-.6 1.7 0 .6.2 1.2.6 1.7.4.5 1 .7 1.6.6.6 0 1.2-.2 1.6-.6.4-.5.6-1.1.6-1.7 0-.6-.2-1.2-.6-1.7-.4-.5-1-.7-1.6-.6-.6 0-1.2.2-1.6.6zM88.1 22.4v-2.3H90v2.3h-1.9zm0 9.5v-7.8H90v7.8h-1.9zM98.3 31.9v-.6c-.1.1-.2.2-.3.2-.3.1-.5.2-.8.3-.4.1-.9.2-1.3.2-1 0-2-.4-2.8-1.1-.8-.8-1.2-1.8-1.1-2.9 0-1.1.4-2.1 1.1-2.9.7-.8 1.7-1.2 2.8-1.1.4 0 .9.1 1.3.2.3.1.6.2.8.4l.3.2V19h1.9v12.9h-1.9zm-.6-2.2c.8-1 .8-2.4 0-3.4-.9-.8-2.3-.8-3.2 0-.8 1-.8 2.4 0 3.4.9.8 2.3.8 3.2 0zM107 31.9l5.2-13.4 5.3 13.4h-2l-.7-1.8h-5l-.7 1.8H107zm5.3-8.3l-1.7 4.6h3.5l-1.8-4.6zM120.9 31.3v4H119V24.1h1.9v.6c.1-.1.2-.2.3-.2.2-.2.5-.3.8-.3.4-.1.9-.2 1.3-.2 1 0 2 .4 2.8 1.1.7.8 1.1 1.8 1.1 2.9 0 1.1-.4 2.1-1.1 2.9-.8.7-1.8 1.1-2.8 1.1-.4 0-.9-.1-1.3-.2-.3-.1-.6-.2-.8-.4l-.3-.1zm.6-5c-.8 1-.8 2.4 0 3.4.9.8 2.3.8 3.2 0 .8-1 .8-2.4 0-3.4-.9-.8-2.3-.8-3.2 0zM131.1 31.3v4h-1.9V24.1h1.9v.6c.1-.1.2-.2.3-.2.2-.2.5-.3.8-.3.4-.1.9-.2 1.3-.2 1 0 2 .4 2.8 1.1.7.8 1.1 1.8 1.1 2.9 0 1.1-.4 2.1-1.1 2.9-.8.7-1.8 1.1-2.8 1.1-.4 0-.9-.1-1.3-.2-.3-.1-.6-.2-.8-.4l-.3-.1zm.5-5c-.8 1-.8 2.4 0 3.4.9.8 2.3.8 3.2 0 .8-1 .8-2.4 0-3.4-.9-.8-2.3-.8-3.2 0zM25.6 9.8l1.3-2c.1-.1.1-.3 0-.3-.1-.1-.2 0-.3 0v.1l-1.4 2a7.8 7.8 0 00-6 0l-1.4-2c-.1-.1-.2-.2-.3-.1-.1.1-.1.2 0 .3l1.3 2c-2.1.9-3.5 2.8-3.8 5.1h14.6c-.4-2.2-1.9-4.1-4-5.1zM19 12.9c-.4 0-.8-.4-.8-.8s.4-.8.8-.8.8.4.8.8c.1.5-.3.8-.8.8zm6.2 0c-.4 0-.8-.4-.8-.8s.4-.8.8-.8.8.4.8.8-.3.8-.8.8zM12.2 16c-.9 0-1.6.7-1.6 1.6v6.6c0 .9.7 1.6 1.6 1.6.9 0 1.6-.7 1.6-1.6v-6.6c0-.8-.6-1.6-1.4-1.6h-.2zM14.8 27.9c0 .7.6 1.3 1.3 1.3h1.5v3.7c0 .9.7 1.6 1.6 1.6s1.6-.7 1.6-1.6v-3.7h2.5v3.7c0 .9.7 1.6 1.6 1.6s1.6-.7 1.6-1.6v-3.7H28c.7 0 1.3-.6 1.3-1.3V16H14.8v11.9zM32 16c-.9 0-1.6.7-1.6 1.6v6.6c0 .9.7 1.6 1.6 1.6s1.6-.7 1.6-1.6v-6.6c0-.9-.7-1.6-1.6-1.6zM42.3 12.9V5.8h2.1c.6 0 1.2.1 1.7.4.5.3.9.7 1.1 1.2.3.6.4 1.2.4 1.8v.4c0 .6-.1 1.2-.4 1.8-.3.5-.7.9-1.2 1.2-.5.3-1.1.4-1.7.4h-2zm1.3-6.1v5.1h.8c.6 0 1.1-.2 1.5-.6.4-.5.6-1.1.5-1.8v-.3c0-.6-.1-1.3-.5-1.8-.4-.4-.9-.6-1.5-.6h-.8zM48.5 10.2c0-.5.1-1 .3-1.4.2-.4.5-.8.9-1 .4-.2.9-.3 1.3-.3.7 0 1.3.2 1.7.7.4.5.7 1.1.7 1.8v.3c0 .5-.1 1-.3 1.4-.2.4-.5.7-.9.9-.3.3-.8.4-1.2.4-.7 0-1.3-.2-1.8-.8-.5-.5-.7-1.2-.7-2zm1.2.1c0 .4.1.9.3 1.3.2.3.6.5.9.5.4 0 .7-.2.9-.5.3-.4.4-.9.3-1.4 0-.5-.1-.9-.3-1.3-.2-.3-.5-.5-.9-.5s-.7.2-.9.5c-.2.4-.3.9-.3 1.4zM59.1 11.3l.8-3.6h1.2L59.7 13h-1l-1.1-3.6-1.1 3.6h-1L54 7.6h1.2l.8 3.6 1.1-3.6h.9l1.1 3.7zM63 7.6v.6c.4-.5.9-.7 1.5-.7 1.1 0 1.7.6 1.7 1.9v3.5H65V9.5c0-.3-.1-.5-.2-.8-.2-.2-.4-.3-.7-.2-.5 0-.9.2-1.1.7V13h-1.2V7.6H63zM68.7 12.9h-1.2V5.4h1.2v7.5zM69.8 10.2c0-.5.1-1 .3-1.4.2-.4.5-.8.9-1 .4-.2.8-.3 1.3-.3.7 0 1.3.2 1.8.7.4.5.7 1.1.7 1.8v.3c0 .5-.1 1-.3 1.4-.2.4-.5.7-.9.9-.4.2-.8.4-1.3.3-.7 0-1.3-.2-1.8-.8-.5-.4-.8-1.2-.7-1.9zm1.2.1c0 .5.1.9.3 1.3.2.3.6.5.9.5.4 0 .7-.2.9-.5.3-.4.4-.9.3-1.4 0-.5-.1-.9-.3-1.3-.2-.3-.6-.5-.9-.5-.4 0-.7.2-.9.5-.2.4-.4.9-.3 1.4zM78.8 12.9c-.1-.2-.1-.3-.1-.5-.7.7-1.9.8-2.7.1-.3-.3-.5-.7-.5-1.1 0-.5.2-1 .6-1.3.5-.3 1.2-.5 1.8-.4h.7v-.4c0-.2-.1-.5-.2-.7-.2-.2-.4-.3-.7-.2-.2 0-.5.1-.7.2-.2.1-.3.3-.3.5h-1.2c0-.3.1-.6.3-.8.2-.3.5-.5.8-.6.4-.1.7-.2 1.1-.2.5 0 1.1.1 1.5.5.4.3.6.8.6 1.3v2.4c0 .4.1.8.2 1.1v.1h-1.2zm-1.3-.9c.2 0 .5-.1.7-.2.2-.1.4-.3.5-.4v-1H78c-.3 0-.7.1-1 .2-.2.1-.3.4-.3.6 0 .2.1.4.2.5.2.3.4.4.6.3zM80.9 10.2c0-.7.2-1.4.6-2 .4-.5 1-.7 1.6-.7.5 0 1 .2 1.3.6V5.4h1.2v7.5h-1.1l-.1-.6c-.4.5-.9.7-1.5.7s-1.2-.3-1.5-.8c-.4-.5-.6-1.3-.5-2zm1.2.1c0 .4.1.9.3 1.3.2.3.5.5.9.4.5 0 .9-.2 1.1-.6V9.1c-.2-.4-.6-.6-1-.6s-.7.2-.9.5c-.3.4-.5.8-.4 1.3z"/></g></g><g id="&#x421;&#x43B;&#x43E;&#x439;_x0020_1"><path class="st2" d="M51.4 12c0 .8-.2 1.5-.7 2-.6.6-1.3.9-2.2.9-.9 0-1.6-.3-2.2-.9-.6-.6-.9-1.3-.9-2.2 0-.9.3-1.6.9-2.2.6-.6 1.3-.9 2.2-.9.4 0 .8.1 1.2.3.4.2.7.4.9.7l-.5.5c-.4-.5-.9-.7-1.6-.7-.6 0-1.2.2-1.6.7-.5.4-.7 1-.7 1.7s.2 1.3.7 1.7 1 .7 1.6.7c.7 0 1.2-.2 1.7-.7.3-.3.5-.7.5-1.2h-2.2v-.8h2.9v.4zm4.5-2.5h-2.7v1.9h2.5v.7h-2.5V14h2.7v.8h-3.4v-6H56l-.1.7zm3.2 5.2h-.8V9.5h-1.7v-.7h4.1v.7H59v5.2zm4.6 0V8.8h.8v5.9h-.8zm4.1 0H67V9.5h-1.7v-.7h4v.7h-1.7l.2 5.2zm9.4-.8c-.6.6-1.3.9-2.2.9-.9 0-1.6-.3-2.2-.9-.6-.6-.9-1.3-.9-2.2 0-.9.3-1.6.9-2.2s1.3-.9 2.2-.9c.9 0 1.6.3 2.2.9.6.6.9 1.3.9 2.2s-.3 1.7-.9 2.2zm-3.8-.4c.4.4 1 .7 1.6.7s1.2-.2 1.6-.7c.4-.4.7-1 .7-1.7s-.2-1.3-.7-1.7c-.4-.4-1-.7-1.6-.7s-1.2.2-1.6.7c-.4.4-.7 1-.7 1.7s.2 1.3.7 1.7zm5.7 1.2V8.8h.9l2.9 4.6V8.8h.8v5.9h-.8l-3.1-4.8v4.8h-.7z"/><path class="st2" d="M51.5 12c0 .4-.1.8-.2 1.1-.1.3-.3.7-.6.9-.3.3-.6.5-1 .7-.4.2-.8.2-1.2.2s-.9-.1-1.2-.2c-.4-.2-.7-.4-1-.7-.3-.3-.5-.6-.7-1-.2-.4-.2-.8-.2-1.2s.1-.9.2-1.2.4-.7.7-1c.3-.3.6-.5 1-.7.4-.2.8-.2 1.2-.2.2 0 .4 0 .6.1.2 0 .4.1.6.2.2.1.4.2.5.3.2.1.3.2.4.4v.1l-.6.6v-.1c-.2-.2-.4-.4-.6-.5-.2-.1-.5-.2-.9-.2-.3 0-.6.1-.9.2-.2.1-.5.3-.6.5-.2.2-.4.4-.5.7-.1.3-.2.6-.2.9 0 .3 0 .7.2.9.1.3.3.5.5.7.2.2.5.4.7.5.2.1.5.2.8.2.3 0 .6-.1.9-.2.3-.1.5-.3.7-.5.1-.1.3-.3.3-.5.1-.2.1-.3.1-.5h-2.2v-1h3.1v.5zm-.4 1c.1-.3.2-.7.2-1.1v-.3h-2.7v.6h2.2v.1c0 .2 0 .5-.1.7-.1.2-.2.4-.4.6-.3.3-.5.4-.8.6-.3.1-.6.2-.9.2-.3 0-.6-.1-.9-.2-.3-.1-.5-.3-.8-.5-.2-.2-.4-.4-.5-.7-.1-.3-.2-.6-.2-1s.1-.7.2-1c.1-.3.3-.5.5-.7.2-.2.4-.4.7-.5.3-.1.6-.2.9-.2.4 0 .7.1.9.2.2.1.5.3.6.5l.4-.4-.3-.3c-.1-.1-.3-.2-.5-.3-.2-.1-.4-.2-.6-.2-.2-.1-.4-.1-.6-.1-.4 0-.8.1-1.2.2-.3.1-.7.4-.9.6-.3.3-.5.6-.6.9-.1.3-.2.7-.2 1.2 0 .4.1.8.2 1.2.1.3.4.7.6.9.3.3.6.5.9.6.3.1.7.2 1.2.2.4 0 .8-.1 1.2-.2.3-.1.7-.4.9-.6.3-.4.5-.6.6-1zm4.8-3.4h-2.6v1.7h2.5v.9h-2.5v1.7H56v1h-3.6V8.8H56l-.1.8zm-2.7-.2h2.6v-.5h-3.3v5.7h3.2V14H53v-2h2.5v-.5H53l.2-2.1zm5.9 5.4h-.9V9.6h-1.7v-.9h4.3v.9h-1.7v5.2zm-.7-.2h.6V9.4h1.7v-.5h-3.9v.5h1.7v5.2zm5.2.1v-6h1v6.1l-1-.1zm.2-5.8v5.7h.6V8.9h-.6zm4 5.9h-.9V9.6h-1.7v-.9h4.2v.9h-1.7v5.2zm-.7-.2h.5V9.4h1.7v-.5h-3.8v.5h1.7v5.2zm10.1-.6c-.3.3-.6.5-1 .7-.4.2-.8.2-1.2.2s-.9-.1-1.2-.2c-.4-.2-.7-.4-1-.7-.3-.3-.5-.6-.7-1-.2-.4-.2-.8-.2-1.2s.1-.9.2-1.2c.2-.4.4-.7.7-1 .3-.3.6-.5 1-.7.4-.2.8-.2 1.2-.2s.9.1 1.2.2c.4.2.7.4 1 .7s.5.6.7 1c.2.4.2.8.2 1.2s-.1.9-.2 1.2c-.1.4-.4.7-.7 1zm-1 .5c.3-.1.7-.4.9-.6.3-.3.5-.6.6-.9.1-.3.2-.7.2-1.2s-.1-.8-.2-1.2c-.1-.3-.4-.7-.6-.9-.3-.3-.6-.5-.9-.6-.3-.1-.7-.2-1.2-.2-.4 0-.8.1-1.2.2-.3.1-.7.4-.9.6-.3.3-.5.6-.6.9-.2.4-.3.7-.3 1.2 0 .4.1.8.2 1.2.1.3.4.7.6.9.3.3.6.5.9.6.3.1.7.2 1.2.2s.9 0 1.3-.2zm-2.7-1.1c.2.2.4.4.7.5.3.1.5.1.8.1.3 0 .6-.1.9-.2.2-.1.5-.3.6-.5.2-.2.4-.4.5-.7.1-.3.2-.6.2-.9 0-.3-.1-.7-.2-.9-.1-.3-.3-.5-.5-.7-.2-.2-.4-.4-.7-.5-.2-.1-.5-.2-.8-.2-.3 0-.6.1-.9.2-.2.1-.5.3-.6.5-.2.2-.4.5-.5.7-.1.3-.2.5-.2.9 0 .3.1.7.2.9.1.4.3.6.5.8zm.6.7c-.3-.1-.6-.3-.8-.5-.2-.2-.4-.5-.5-.7-.1-.3-.2-.6-.2-1 0-.3.1-.7.2-.9.1-.3.3-.6.5-.8.2-.2.4-.4.7-.5.3-.1.6-.2.9-.2.3 0 .6.1.9.2.3.1.6.3.8.5.2.2.4.4.5.7.1.3.2.6.2 1 0 .3-.1.7-.2.9-.1.3-.3.6-.5.8-.2.2-.4.4-.7.5-.3.1-.6.2-.9.2-.3-.1-.6-.1-.9-.2zm4.9.6v-6h1l2.7 4.4V8.7h1v6.1h-.9l-2.9-4.6v4.6l-.9-.1zm.2-5.8v5.7h.5v-5l3.2 5.1h.6V8.9H83v4.9l-3-4.9h-.8zM71.7 23.4c-2.4 0-4.2 1.8-4.2 4.2 0 2.4 1.9 4.2 4.2 4.2 2.4 0 4.2-1.8 4.2-4.2.1-2.5-1.8-4.2-4.2-4.2zm0 6.7c-1.3 0-2.4-1.1-2.4-2.6s1.1-2.6 2.4-2.6c1.3 0 2.4 1 2.4 2.6 0 1.5-1.1 2.6-2.4 2.6zm-9.1-6.7c-2.4 0-4.2 1.8-4.2 4.2 0 2.4 1.9 4.2 4.2 4.2 2.4 0 4.2-1.8 4.2-4.2 0-2.5-1.9-4.2-4.2-4.2zm0 6.7c-1.3 0-2.4-1.1-2.4-2.6s1.1-2.6 2.4-2.6c1.3 0 2.4 1 2.4 2.6-.1 1.5-1.1 2.6-2.4 2.6zm-11-5.4v1.8h4.2c-.1 1-.5 1.8-1 2.3-.6.6-1.6 1.3-3.2 1.3C49 30 47 27.9 47 25.3s2.1-4.7 4.6-4.7c1.4 0 2.5.6 3.3 1.3l1.3-1.3c-1.1-1-2.5-1.8-4.4-1.8-3.5 0-6.6 3-6.6 6.5s3 6.5 6.6 6.5c2 0 3.3-.6 4.5-1.9 1.2-1.2 1.6-2.9 1.6-4.1 0-.4 0-.8-.1-1.1h-6.2zm44.8 1.4c-.4-1-1.4-2.7-3.6-2.7s-3.9 1.7-3.9 4.2c0 2.4 1.8 4.2 4.1 4.2 1.9 0 3.1-1.2 3.4-1.9l-1.4-1c-.5.7-1.1 1.2-2.1 1.2s-1.6-.4-2.1-1.3l5.6-2.4v-.3zm-5.7 1.4c0-1.6 1.3-2.5 2.2-2.5.7 0 1.4.4 1.6.9l-3.8 1.6zm-4.7 4h1.9V19.2H86v12.3zm-2.9-7.2c-.5-.5-1.3-1-2.3-1-2.1 0-4 1.9-4 4.2s1.9 4.1 4 4.1c1 0 1.8-.5 2.2-1h.1v.6c0 1.6-.9 2.5-2.3 2.5-1.1 0-1.9-.8-2.1-1.5l-1.5.8c.5 1.1 1.7 2.5 3.7 2.5 2.2 0 3.9-1.3 3.9-4.3v-7.5H83v.6zm-2.2 5.8c-1.3 0-2.4-1.1-2.4-2.6s1.1-2.6 2.4-2.6c1.3 0 2.3 1.1 2.3 2.6s-1 2.6-2.3 2.6zM105 19.2h-4.4v12.3h1.9v-4.6h2.6c2.1 0 4-1.5 4-3.8s-2.1-3.9-4.1-3.9zm.1 5.9h-2.7v-4.2h2.7c1.4 0 2.2 1.2 2.2 2.1-.2 1-1 2.1-2.2 2.1zm11.3-1.8c-1.4 0-2.8.6-3.3 1.9l1.7.7c.4-.7 1-.9 1.7-.9 1 0 1.9.6 2 1.6v.1c-.3-.2-1.1-.5-1.9-.5-1.8 0-3.5 1-3.5 2.8 0 1.7 1.5 2.8 3.1 2.8 1.3 0 1.9-.6 2.4-1.2h.1v1h1.8v-4.7c-.4-2.3-2.1-3.6-4.1-3.6zm-.2 6.8c-.6 0-1.5-.3-1.5-1.1 0-1 1.1-1.3 2-1.3.8 0 1.2.2 1.7.4-.2 1.2-1.2 2-2.2 2zm10.3-6.5l-2.1 5.3h-.1l-2.2-5.3h-2l3.2 7.5-1.9 4.1h1.9l5-11.6h-1.8zM110 31.5h1.9V19.2H110v12.3zM14.9 9.3c-.3.3-.4.8-.4 1.4v21.8c0 .6.2 1.1.5 1.4l.1.1 12.2-12.2v-.2L14.9 9.3zM31.9 25.9l-4-4v-.3l4-4 .1.1 4.8 2.8c1.4.8 1.4 2.1 0 2.9l-4.9 2.5zM31.7 26.1L27.5 22 15.2 34.3c.5.5 1.2.5 2.1.1l14.4-8.3zM31.7 17.3L17.3 9.1c-.9-.5-1.6-.4-2.1.1l12.3 12.2 4.2-4.1z"/><path class="st3" d="M31.3 25.7l-14.3 8c-.8.5-1.5.4-2 0l-.1.1.1.1c.5.4 1.2.5 2 0l14.3-8.2zM14.9 33.7c-.3-.3-.4-.8-.4-1.4v.1c0 .6.2 1.1.4 1.3zm21.3-10.8l-4.9 2.8.1.1 4.8-2.9c.7-.3 1-.8 1-1.3 0 .5-.4.9-1 1.3z"/></g></symbol><symbol id="appstore" viewBox="0 0 143 42"><style>.st2{fill:#fff}</style><path id="line" d="M137.9 42H5c-2.8 0-5-2.2-5-5V5c0-2.8 2.2-5 5-5h132.9c2.8-.1 5 2.1 5.1 4.9V37c0 2.8-2.2 5-5 5h-.1z" fill="#a6a6a6"/><path id="path-1" d="M137.9 41H5.1c-2.2.1-4-1.7-4.1-3.9V5c0-2.2 1.8-4 4-4h133c2.2 0 4.1 1.8 4.1 4v32c-.1 2.2-1.9 4-4.2 4z"/><path id="logo" class="st2" d="M31.9 20.8c0-3.4 2.8-5 2.9-5.1-1.1-1.7-3-2.7-5-2.7-2-.2-4.1 1.2-5.1 1.2-1.1 0-2.7-1.2-4.5-1.2-2.3 0-4.4 1.3-5.5 3.4-2.4 4.1-.6 10.2 1.7 13.5 1.1 1.6 2.5 3.4 4.2 3.4 1.7-.1 2.4-1.1 4.4-1.1 2.1 0 2.7 1.1 4.4 1 1.8 0 3-1.6 4.1-3.3 1.3-1.9 1.9-3.7 1.9-3.8 0 0-3.5-1.3-3.5-5.3zm-3.4-10c1-1.2 1.5-2.7 1.4-4.3-1.3.1-3 .9-4 2-.9 1-1.6 2.6-1.4 4.1 1.5.2 3-.7 4-1.8z"/><path id="text" class="st2" d="M56.7 33.1h-2.4L53 29h-4.6l-1.3 4.1h-2.3l4.6-14h2.8l4.5 14zm-4.1-5.9l-1.2-3.6-.7-2.6-.7 2.6-1.2 3.6h3.8zm15.8.7c.1 1.5-.4 3-1.4 4.1-.8.9-1.9 1.3-3.1 1.3-1.3 0-2.3-.5-2.9-1.4v5.3h-2.3V26.3l-.1-3.3h2l.1 1.6c.7-1.2 2-1.9 3.4-1.8 1.2 0 2.2.5 3 1.4.9 1 1.4 2.3 1.3 3.7zm-2.3.1c0-1-.2-1.8-.7-2.4-.5-.7-1.1-1-2-1-.6 0-1.1.2-1.5.5-.5.4-.7.8-.9 1.4l-.1.7v1.7c0 .7.2 1.3.7 1.9.5.5 1 .8 1.8.8s1.5-.3 2-1c.5-.8.7-1.7.7-2.6zm13.9-.1c.1 1.5-.4 3-1.4 4.1-.8.9-1.9 1.3-3.1 1.3-1.3 0-2.3-.5-2.9-1.4v5.3h-2.3V26.3l-.1-3.3h2l.2 1.6c.7-1.2 2-1.9 3.4-1.8 1.2 0 2.2.5 3 1.4.8.9 1.2 2.2 1.2 3.7zm-2.3.1c0-1-.2-1.8-.7-2.4-.5-.7-1.1-1-2-1-.6 0-1.1.2-1.5.5-.5.4-.7.8-.9 1.4l-.1.7v1.7c0 .7.2 1.3.7 1.9.5.5 1 .8 1.8.8s1.5-.3 2-1 .7-1.5.7-2.6zm15.4 1.1c0 1.2-.4 2.2-1.2 2.9-.9.8-2.2 1.2-3.8 1.2-1.5 0-2.7-.3-3.6-.9l.5-1.9c1 .6 2.1.9 3.3.9.8 0 1.5-.2 2-.6.5-.4.7-.9.7-1.5s-.2-1-.6-1.4c-.4-.4-1-.7-1.9-1.1-2.5-.9-3.7-2.2-3.7-4 0-1.1.4-2.1 1.3-2.8.9-.7 2-1.1 3.4-1.1 1.3 0 2.3.2 3.2.7l-.6 1.8c-.8-.4-1.8-.6-2.7-.6-.8 0-1.4.2-1.9.6-.4.3-.6.8-.6 1.3 0 .6.2 1 .6 1.4l2 1.1c1 .4 1.9.9 2.7 1.7.6.6.9 1.4.9 2.3zm7.4-4.4H98v4.9c0 1.2.4 1.9 1.3 1.9l1-.1.1 1.7c-.4.2-1 .2-1.8.2-.9 0-1.6-.3-2.1-.8s-.8-1.4-.8-2.7v-5.1h-1.3V23h1.5v-1.8l2.2-.7V23h2.5v1.7h-.1zm11.2 3.2c0 1.5-.4 2.8-1.3 3.8s-2.2 1.5-3.7 1.5-2.7-.5-3.6-1.5c-.9-1-1.3-2.2-1.3-3.7 0-1.6.5-2.8 1.4-3.8s2.1-1.5 3.7-1.5c1.5 0 2.7.5 3.6 1.5.8 1 1.2 2.2 1.2 3.7zm-2.3.1c0-.9-.2-1.7-.6-2.4-.5-.8-1.1-1.2-2-1.2s-1.6.4-2.1 1.2c-.4.7-.6 1.5-.6 2.4 0 .9.2 1.7.6 2.4.5.8 1.2 1.2 2 1.2.9 0 1.5-.4 2-1.2.5-.6.7-1.5.7-2.4zm9.7-3l-.7-.1c-.7 0-1.4.3-1.8.9-.4.5-.6 1.2-.6 2v5.3h-2.3v-6.9l-.1-3.2h2l.1 1.9h.1c.2-.6.6-1.2 1.1-1.6.5-.4 1-.5 1.6-.5h.6V25zm10.1 2.6l-.1 1h-6.8c0 .9.3 1.7 1 2.3.6.5 1.3.7 2.2.7 1 0 1.9-.2 2.7-.5l.4 1.6c-1.1.4-2.2.6-3.4.6-1.4.1-2.7-.4-3.7-1.4-.9-1-1.4-2.3-1.3-3.7 0-1.5.4-2.8 1.3-3.8.8-1.1 2.1-1.6 3.5-1.6 1.5 0 2.6.5 3.3 1.6.6.8.9 1.9.9 3.2zM127 27c0-.6-.1-1.2-.4-1.7-.4-.6-1.1-.9-1.8-.9s-1.3.3-1.8.9c-.4.5-.6 1.1-.7 1.7h4.7z"/><path id="top" class="st2" d="M51.9 10.5c0 1.2-.4 2.2-1.1 2.8s-1.7.9-3 .9l-1.6-.1V7.3l1.9-.1c1.2 0 2.1.3 2.7.8.8.6 1.1 1.4 1.1 2.5zm-1.2 0c0-.8-.2-1.4-.6-1.8-.4-.4-1.1-.6-1.9-.6l-.9.1v5.1h.8c.8 0 1.5-.2 2-.7.4-.5.6-1.2.6-2.1zm7.4 1.1c0 .8-.2 1.4-.7 1.9s-1.1.8-1.8.8-1.3-.2-1.7-.7c-.5-.6-.7-1.2-.7-1.9 0-.8.2-1.4.7-1.9.4-.5 1-.7 1.8-.7.7 0 1.3.2 1.8.7.4.4.6 1 .6 1.8zm-1.2 0c0-.5-.1-.8-.3-1.2-.2-.4-.6-.6-1-.6s-.8.2-1 .6l-.3 1.2c0 .5.1.8.3 1.2.2.4.6.6 1 .6s.8-.2 1-.6c.2-.3.3-.7.3-1.2zm9.5-2.4l-1.6 4.9h-1l-.6-2.1-.4-1.6-.4 1.6-.7 2.1h-1l-1.5-4.9h1.1l.6 2.4.3 1.6.4-1.6.7-2.4h.9l.7 2.3.4 1.6.3-1.6.6-2.3h1.2zm5.7 4.9H71v-2.8c0-.9-.3-1.3-1-1.3-.3 0-.6.1-.8.4-.2.2-.3.5-.3.8v2.9h-1.1V9.2h1l.1.8.6-.6c.3-.2.6-.3 1-.3.5 0 .9.1 1.2.4.4.4.6.9.6 1.6v3h-.2zm3.1 0h-1.1V6.9h1.1v7.2zm6.5-2.5c0 .8-.2 1.4-.7 1.9s-1.1.8-1.8.8-1.3-.2-1.7-.7c-.4-.5-.7-1.1-.7-1.8 0-.8.2-1.4.7-1.9.4-.5 1.1-.7 1.8-.7s1.3.2 1.8.7c.4.3.6.9.6 1.7zm-1.1 0c0-.5-.1-.8-.3-1.2-.2-.4-.6-.6-1-.6s-.8.2-1 .6c-.2.3-.3.7-.3 1.2s.1.8.3 1.2c.2.4.6.6 1 .6s.8-.2 1-.6c.2-.3.3-.7.3-1.2zm6.5 2.5h-1l-.1-.6c-.3.5-.8.7-1.5.7-.5 0-.9-.1-1.1-.4-.3-.3-.4-.6-.4-1 0-.6.3-1.1.8-1.4.6-.4 1.4-.5 2.1-.5v-.1c0-.7-.3-1-1-1-.5 0-.9.1-1.3.4l-.2-.7c.5-.3 1.1-.4 1.7-.4 1.3 0 2 .7 2 2v3zm-1.2-1.7v-.8c-1.2 0-1.8.3-1.8 1l.2.6.6.2.7-.2.4-.6-.1-.2zm7.5 1.7h-1l-.1-.8c-.3.6-.8.9-1.6.9-.6 0-1.1-.2-1.5-.7-.4-.5-.6-1.1-.6-1.8 0-.8.2-1.4.6-1.9.4-.5.9-.7 1.5-.7.7 0 1.1.2 1.4.7V6.9h1.1v5.9l.2 1.3zM92.2 12v-1.1l-.4-.7c-.2-.2-.4-.3-.7-.3-.4 0-.7.2-1 .5-.2.3-.4.7-.4 1.3 0 .5.1.9.3 1.2s.6.5 1 .5.7-.1.9-.4c.2-.3.3-.6.3-1zm10.7-.4c0 .8-.2 1.4-.7 1.9s-1.1.8-1.8.8-1.3-.2-1.7-.7-.7-1.1-.7-1.8c0-.8.2-1.4.7-1.9.4-.6 1-.8 1.8-.8.7 0 1.3.2 1.8.7.3.4.6 1 .6 1.8zm-1.2 0c0-.5-.1-.8-.3-1.2-.2-.4-.6-.6-1-.6s-.8.2-1 .6c-.2.3-.3.7-.3 1.2s.1.8.3 1.2c.2.4.6.6 1 .6s.8-.2 1-.6c.2-.3.3-.7.3-1.2zm7.1 2.5h-1.1v-2.8c0-.9-.3-1.3-1-1.3-.3 0-.6.1-.8.4-.2.2-.3.5-.3.8v2.9h-1.1V9.2h1v.7l.6-.6c.3-.2.6-.3 1-.3.5 0 .9.1 1.2.4.4.4.6.9.6 1.6l-.1 3.1zm7.5-4.1h-1.2v2.4c0 .6.2.9.6.9l.5-.1v.8l-.9.1c-.4 0-.8-.1-1-.4s-.4-.7-.4-1.3V10h-.7v-.8h.7v-1l1.1-.3v1.2h1.2l.1.9zm5.8 4.1H121v-2.8c0-.9-.3-1.3-1-1.3-.5 0-.9.3-1.1.8l-.1.4v3h-1.1V6.9h1.1v3c.3-.5.8-.8 1.5-.8.5 0 .8.1 1.1.4.4.4.6.9.6 1.7l.1 2.9zm6.1-2.7v.5h-3.3c0 .5.2.9.5 1.1.3.2.6.3 1.1.3l1.3-.2.2.8c-.5.2-1 .3-1.7.3-.8 0-1.4-.2-1.8-.7s-.7-1.1-.7-1.8.2-1.4.6-1.9 1-.8 1.7-.8 1.3.3 1.6.8c.3.5.5 1 .5 1.6zm-1.1-.3l-.2-.8c-.2-.3-.5-.5-.9-.5s-.7.1-.9.4c-.2.2-.3.5-.3.9h2.3z"/></symbol><symbol id="facebook" viewBox="0 0 96.124 96.123"><path d="M72.089.02L59.624 0C45.62 0 36.57 9.285 36.57 23.656v10.907H24.037a1.96 1.96 0 00-1.96 1.961v15.803a1.96 1.96 0 001.96 1.96H36.57v39.876a1.96 1.96 0 001.96 1.96h16.352a1.96 1.96 0 001.96-1.96V54.287h14.654a1.96 1.96 0 001.96-1.96l.006-15.803a1.963 1.963 0 00-1.961-1.961H56.842v-9.246c0-4.444 1.059-6.7 6.848-6.7l8.397-.003a1.96 1.96 0 001.959-1.96V1.98A1.96 1.96 0 0072.089.02z"/></symbol><symbol id="icon-sprite"><symbol id="18plus" viewBox="0 0 595.3 841.9"><circle cx="194" cy="219.9" r="85" fill="red"/><circle cx="194" cy="220.5" r="62.5" fill="#fff"/><path d="M175.5 181.6v71.1h-17.8v-38.1c0-5.5-.1-8.8-.4-9.9-.3-1.1-1-2-2.2-2.5s-3.8-.9-7.9-.9h-1.8V193c8.6-1.8 15.1-5.6 19.6-11.4h10.5zM214.1 212.4c2.6 1.1 4.6 2.6 6 4.7s2.1 7.1 2.1 15c0 5.7-.6 10-1.7 12.7-1.1 2.7-3.3 5-6.5 6.7-3.2 1.7-7.5 2.6-13 2.6-5.3 0-9.4-.8-12.5-2.5-3.1-1.7-5.3-3.9-6.6-6.6-1.3-2.8-2-7.3-2-13.8 0-4.3.3-8 1-11.2.7-3.2 2.7-5.7 6.2-7.6-2.2-1.1-3.8-2.7-4.9-5-1.1-2.3-1.6-5.2-1.6-8.8 0-6.1 1.7-10.7 5.1-13.8 3.4-3.1 8.5-4.6 15.2-4.6 7.8 0 13.2 1.6 16.2 4.9 3 3.2 4.5 7.9 4.5 13.9 0 3.8-.5 6.6-1.5 8.3-1 1.7-3 3.4-6 5.1zm-9.6 14.3c0-2.7-.3-4.5-.8-5.4-.6-.9-1.4-1.3-2.6-1.3-1.2 0-2 .4-2.5 1.3s-.8 2.7-.8 5.5v9.2c0 3.1.3 5.1.9 5.9s1.5 1.3 2.7 1.3c1.3 0 2.1-.4 2.5-1.3.4-.9.7-2.9.7-6v-9.2zm-.4-29.6c0-2.4-.2-4-.6-4.8-.4-.8-1.2-1.2-2.4-1.2s-2 .4-2.4 1.3c-.4.8-.6 2.4-.6 4.7v5.4c0 2.1.2 3.6.7 4.4.5.8 1.3 1.2 2.4 1.2 1.2 0 2-.4 2.4-1.2.4-.8.6-2.5.6-5v-4.8z"/><g><path d="M236.9 217.3h8.3v6h-8.3v9.4h-6.3v-9.4h-8.3v-6h8.3v-9h6.3v9z"/></g></symbol><symbol id="android-market" viewBox="0 0 143 42"><style>.st1{display:none;fill:#fff}.st2,.st3{fill:#fefefe}.st3{fill-opacity:.2}</style><g id="Layer_2"><g id="Layer_1-2"><path d="M137.2 41.5H5.8c-2.8.1-5.2-2.2-5.3-5V5.6C.6 2.7 2.9.5 5.8.5h131.5c2.9 0 5.2 2.2 5.3 5.1v30.8c-.1 2.9-2.5 5.1-5.4 5.1z"/><path d="M137.6 1c2.4 0 4.4 2 4.4 4.4v31.3c0 2.4-2 4.4-4.4 4.4H5.4C3 41 1.1 39 1 36.6V5.4C1 3 3 1 5.4 1h132.2zm.1-1H5.3C2.4 0 .1 2.3 0 5.2v31.5C0 39.6 2.4 42 5.3 42h132.4c2.9 0 5.2-2.3 5.3-5.2V5.2c-.1-2.9-2.4-5.2-5.3-5.2z" fill="#a6a6a6"/><path class="st1" d="M41.6 31.9l5.2-13.4 5.3 13.4h-2l-.7-1.8h-5l-.7 1.8h-2.1zm5.3-8.3l-1.7 4.6h3.5l-1.8-4.6zM60.3 27.1v4.8h-1.9v-4.6c0-.4-.1-.8-.3-1.1-.2-.3-.6-.5-1-.5-.5 0-.9.2-1.2.5-.3.5-.5 1-.5 1.6v4h-1.9V24h1.9v.6c1.2-1 2.9-1.1 4.1-.1.6.7.9 1.7.8 2.6zM68.6 31.9v-.6c-.1.1-.2.2-.3.2-.3.1-.5.2-.8.3-.4.1-.9.2-1.3.2-1 0-2-.4-2.8-1.1-.8-.8-1.2-1.8-1.1-2.9 0-1.1.4-2.1 1.1-2.9.7-.8 1.7-1.2 2.8-1.1.4 0 .9.1 1.3.2.3.1.6.2.8.4l.3.2V19h1.9v12.9h-1.9zm-.6-2.2c.8-1 .8-2.4 0-3.4-.9-.8-2.3-.8-3.2 0-.8 1-.8 2.4 0 3.4.9.8 2.3.8 3.2 0zM77.1 25.7c-.6-.1-1.2.1-1.7.5s-.7 1.1-.6 1.7v4H73v-7.8h1.9v.6c.6-.6 1.5-.8 2.3-.8v1.8h-.1zM84.9 25.1c.8.8 1.2 1.8 1.2 2.9 0 1.1-.4 2.1-1.2 2.9-1.6 1.6-4.2 1.6-5.8 0-.8-.8-1.2-1.8-1.2-2.9 0-1.1.4-2.1 1.2-2.9 1.6-1.6 4.2-1.6 5.8 0zm-4.5 1.2c-.4.5-.6 1.1-.6 1.7 0 .6.2 1.2.6 1.7.4.5 1 .7 1.6.6.6 0 1.2-.2 1.6-.6.4-.5.6-1.1.6-1.7 0-.6-.2-1.2-.6-1.7-.4-.5-1-.7-1.6-.6-.6 0-1.2.2-1.6.6zM88.1 22.4v-2.3H90v2.3h-1.9zm0 9.5v-7.8H90v7.8h-1.9zM98.3 31.9v-.6c-.1.1-.2.2-.3.2-.3.1-.5.2-.8.3-.4.1-.9.2-1.3.2-1 0-2-.4-2.8-1.1-.8-.8-1.2-1.8-1.1-2.9 0-1.1.4-2.1 1.1-2.9.7-.8 1.7-1.2 2.8-1.1.4 0 .9.1 1.3.2.3.1.6.2.8.4l.3.2V19h1.9v12.9h-1.9zm-.6-2.2c.8-1 .8-2.4 0-3.4-.9-.8-2.3-.8-3.2 0-.8 1-.8 2.4 0 3.4.9.8 2.3.8 3.2 0zM107 31.9l5.2-13.4 5.3 13.4h-2l-.7-1.8h-5l-.7 1.8H107zm5.3-8.3l-1.7 4.6h3.5l-1.8-4.6zM120.9 31.3v4H119V24.1h1.9v.6c.1-.1.2-.2.3-.2.2-.2.5-.3.8-.3.4-.1.9-.2 1.3-.2 1 0 2 .4 2.8 1.1.7.8 1.1 1.8 1.1 2.9 0 1.1-.4 2.1-1.1 2.9-.8.7-1.8 1.1-2.8 1.1-.4 0-.9-.1-1.3-.2-.3-.1-.6-.2-.8-.4l-.3-.1zm.6-5c-.8 1-.8 2.4 0 3.4.9.8 2.3.8 3.2 0 .8-1 .8-2.4 0-3.4-.9-.8-2.3-.8-3.2 0zM131.1 31.3v4h-1.9V24.1h1.9v.6c.1-.1.2-.2.3-.2.2-.2.5-.3.8-.3.4-.1.9-.2 1.3-.2 1 0 2 .4 2.8 1.1.7.8 1.1 1.8 1.1 2.9 0 1.1-.4 2.1-1.1 2.9-.8.7-1.8 1.1-2.8 1.1-.4 0-.9-.1-1.3-.2-.3-.1-.6-.2-.8-.4l-.3-.1zm.5-5c-.8 1-.8 2.4 0 3.4.9.8 2.3.8 3.2 0 .8-1 .8-2.4 0-3.4-.9-.8-2.3-.8-3.2 0zM25.6 9.8l1.3-2c.1-.1.1-.3 0-.3-.1-.1-.2 0-.3 0v.1l-1.4 2a7.8 7.8 0 00-6 0l-1.4-2c-.1-.1-.2-.2-.3-.1-.1.1-.1.2 0 .3l1.3 2c-2.1.9-3.5 2.8-3.8 5.1h14.6c-.4-2.2-1.9-4.1-4-5.1zM19 12.9c-.4 0-.8-.4-.8-.8s.4-.8.8-.8.8.4.8.8c.1.5-.3.8-.8.8zm6.2 0c-.4 0-.8-.4-.8-.8s.4-.8.8-.8.8.4.8.8-.3.8-.8.8zM12.2 16c-.9 0-1.6.7-1.6 1.6v6.6c0 .9.7 1.6 1.6 1.6.9 0 1.6-.7 1.6-1.6v-6.6c0-.8-.6-1.6-1.4-1.6h-.2zM14.8 27.9c0 .7.6 1.3 1.3 1.3h1.5v3.7c0 .9.7 1.6 1.6 1.6s1.6-.7 1.6-1.6v-3.7h2.5v3.7c0 .9.7 1.6 1.6 1.6s1.6-.7 1.6-1.6v-3.7H28c.7 0 1.3-.6 1.3-1.3V16H14.8v11.9zM32 16c-.9 0-1.6.7-1.6 1.6v6.6c0 .9.7 1.6 1.6 1.6s1.6-.7 1.6-1.6v-6.6c0-.9-.7-1.6-1.6-1.6zM42.3 12.9V5.8h2.1c.6 0 1.2.1 1.7.4.5.3.9.7 1.1 1.2.3.6.4 1.2.4 1.8v.4c0 .6-.1 1.2-.4 1.8-.3.5-.7.9-1.2 1.2-.5.3-1.1.4-1.7.4h-2zm1.3-6.1v5.1h.8c.6 0 1.1-.2 1.5-.6.4-.5.6-1.1.5-1.8v-.3c0-.6-.1-1.3-.5-1.8-.4-.4-.9-.6-1.5-.6h-.8zM48.5 10.2c0-.5.1-1 .3-1.4.2-.4.5-.8.9-1 .4-.2.9-.3 1.3-.3.7 0 1.3.2 1.7.7.4.5.7 1.1.7 1.8v.3c0 .5-.1 1-.3 1.4-.2.4-.5.7-.9.9-.3.3-.8.4-1.2.4-.7 0-1.3-.2-1.8-.8-.5-.5-.7-1.2-.7-2zm1.2.1c0 .4.1.9.3 1.3.2.3.6.5.9.5.4 0 .7-.2.9-.5.3-.4.4-.9.3-1.4 0-.5-.1-.9-.3-1.3-.2-.3-.5-.5-.9-.5s-.7.2-.9.5c-.2.4-.3.9-.3 1.4zM59.1 11.3l.8-3.6h1.2L59.7 13h-1l-1.1-3.6-1.1 3.6h-1L54 7.6h1.2l.8 3.6 1.1-3.6h.9l1.1 3.7zM63 7.6v.6c.4-.5.9-.7 1.5-.7 1.1 0 1.7.6 1.7 1.9v3.5H65V9.5c0-.3-.1-.5-.2-.8-.2-.2-.4-.3-.7-.2-.5 0-.9.2-1.1.7V13h-1.2V7.6H63zM68.7 12.9h-1.2V5.4h1.2v7.5zM69.8 10.2c0-.5.1-1 .3-1.4.2-.4.5-.8.9-1 .4-.2.8-.3 1.3-.3.7 0 1.3.2 1.8.7.4.5.7 1.1.7 1.8v.3c0 .5-.1 1-.3 1.4-.2.4-.5.7-.9.9-.4.2-.8.4-1.3.3-.7 0-1.3-.2-1.8-.8-.5-.4-.8-1.2-.7-1.9zm1.2.1c0 .5.1.9.3 1.3.2.3.6.5.9.5.4 0 .7-.2.9-.5.3-.4.4-.9.3-1.4 0-.5-.1-.9-.3-1.3-.2-.3-.6-.5-.9-.5-.4 0-.7.2-.9.5-.2.4-.4.9-.3 1.4zM78.8 12.9c-.1-.2-.1-.3-.1-.5-.7.7-1.9.8-2.7.1-.3-.3-.5-.7-.5-1.1 0-.5.2-1 .6-1.3.5-.3 1.2-.5 1.8-.4h.7v-.4c0-.2-.1-.5-.2-.7-.2-.2-.4-.3-.7-.2-.2 0-.5.1-.7.2-.2.1-.3.3-.3.5h-1.2c0-.3.1-.6.3-.8.2-.3.5-.5.8-.6.4-.1.7-.2 1.1-.2.5 0 1.1.1 1.5.5.4.3.6.8.6 1.3v2.4c0 .4.1.8.2 1.1v.1h-1.2zm-1.3-.9c.2 0 .5-.1.7-.2.2-.1.4-.3.5-.4v-1H78c-.3 0-.7.1-1 .2-.2.1-.3.4-.3.6 0 .2.1.4.2.5.2.3.4.4.6.3zM80.9 10.2c0-.7.2-1.4.6-2 .4-.5 1-.7 1.6-.7.5 0 1 .2 1.3.6V5.4h1.2v7.5h-1.1l-.1-.6c-.4.5-.9.7-1.5.7s-1.2-.3-1.5-.8c-.4-.5-.6-1.3-.5-2zm1.2.1c0 .4.1.9.3 1.3.2.3.5.5.9.4.5 0 .9-.2 1.1-.6V9.1c-.2-.4-.6-.6-1-.6s-.7.2-.9.5c-.3.4-.5.8-.4 1.3z"/></g></g><g id="&#x421;&#x43B;&#x43E;&#x439;_x0020_1"><path class="st2" d="M51.4 12c0 .8-.2 1.5-.7 2-.6.6-1.3.9-2.2.9-.9 0-1.6-.3-2.2-.9-.6-.6-.9-1.3-.9-2.2 0-.9.3-1.6.9-2.2.6-.6 1.3-.9 2.2-.9.4 0 .8.1 1.2.3.4.2.7.4.9.7l-.5.5c-.4-.5-.9-.7-1.6-.7-.6 0-1.2.2-1.6.7-.5.4-.7 1-.7 1.7s.2 1.3.7 1.7 1 .7 1.6.7c.7 0 1.2-.2 1.7-.7.3-.3.5-.7.5-1.2h-2.2v-.8h2.9v.4zm4.5-2.5h-2.7v1.9h2.5v.7h-2.5V14h2.7v.8h-3.4v-6H56l-.1.7zm3.2 5.2h-.8V9.5h-1.7v-.7h4.1v.7H59v5.2zm4.6 0V8.8h.8v5.9h-.8zm4.1 0H67V9.5h-1.7v-.7h4v.7h-1.7l.2 5.2zm9.4-.8c-.6.6-1.3.9-2.2.9-.9 0-1.6-.3-2.2-.9-.6-.6-.9-1.3-.9-2.2 0-.9.3-1.6.9-2.2s1.3-.9 2.2-.9c.9 0 1.6.3 2.2.9.6.6.9 1.3.9 2.2s-.3 1.7-.9 2.2zm-3.8-.4c.4.4 1 .7 1.6.7s1.2-.2 1.6-.7c.4-.4.7-1 .7-1.7s-.2-1.3-.7-1.7c-.4-.4-1-.7-1.6-.7s-1.2.2-1.6.7c-.4.4-.7 1-.7 1.7s.2 1.3.7 1.7zm5.7 1.2V8.8h.9l2.9 4.6V8.8h.8v5.9h-.8l-3.1-4.8v4.8h-.7z"/><path class="st2" d="M51.5 12c0 .4-.1.8-.2 1.1-.1.3-.3.7-.6.9-.3.3-.6.5-1 .7-.4.2-.8.2-1.2.2s-.9-.1-1.2-.2c-.4-.2-.7-.4-1-.7-.3-.3-.5-.6-.7-1-.2-.4-.2-.8-.2-1.2s.1-.9.2-1.2.4-.7.7-1c.3-.3.6-.5 1-.7.4-.2.8-.2 1.2-.2.2 0 .4 0 .6.1.2 0 .4.1.6.2.2.1.4.2.5.3.2.1.3.2.4.4v.1l-.6.6v-.1c-.2-.2-.4-.4-.6-.5-.2-.1-.5-.2-.9-.2-.3 0-.6.1-.9.2-.2.1-.5.3-.6.5-.2.2-.4.4-.5.7-.1.3-.2.6-.2.9 0 .3 0 .7.2.9.1.3.3.5.5.7.2.2.5.4.7.5.2.1.5.2.8.2.3 0 .6-.1.9-.2.3-.1.5-.3.7-.5.1-.1.3-.3.3-.5.1-.2.1-.3.1-.5h-2.2v-1h3.1v.5zm-.4 1c.1-.3.2-.7.2-1.1v-.3h-2.7v.6h2.2v.1c0 .2 0 .5-.1.7-.1.2-.2.4-.4.6-.3.3-.5.4-.8.6-.3.1-.6.2-.9.2-.3 0-.6-.1-.9-.2-.3-.1-.5-.3-.8-.5-.2-.2-.4-.4-.5-.7-.1-.3-.2-.6-.2-1s.1-.7.2-1c.1-.3.3-.5.5-.7.2-.2.4-.4.7-.5.3-.1.6-.2.9-.2.4 0 .7.1.9.2.2.1.5.3.6.5l.4-.4-.3-.3c-.1-.1-.3-.2-.5-.3-.2-.1-.4-.2-.6-.2-.2-.1-.4-.1-.6-.1-.4 0-.8.1-1.2.2-.3.1-.7.4-.9.6-.3.3-.5.6-.6.9-.1.3-.2.7-.2 1.2 0 .4.1.8.2 1.2.1.3.4.7.6.9.3.3.6.5.9.6.3.1.7.2 1.2.2.4 0 .8-.1 1.2-.2.3-.1.7-.4.9-.6.3-.4.5-.6.6-1zm4.8-3.4h-2.6v1.7h2.5v.9h-2.5v1.7H56v1h-3.6V8.8H56l-.1.8zm-2.7-.2h2.6v-.5h-3.3v5.7h3.2V14H53v-2h2.5v-.5H53l.2-2.1zm5.9 5.4h-.9V9.6h-1.7v-.9h4.3v.9h-1.7v5.2zm-.7-.2h.6V9.4h1.7v-.5h-3.9v.5h1.7v5.2zm5.2.1v-6h1v6.1l-1-.1zm.2-5.8v5.7h.6V8.9h-.6zm4 5.9h-.9V9.6h-1.7v-.9h4.2v.9h-1.7v5.2zm-.7-.2h.5V9.4h1.7v-.5h-3.8v.5h1.7v5.2zm10.1-.6c-.3.3-.6.5-1 .7-.4.2-.8.2-1.2.2s-.9-.1-1.2-.2c-.4-.2-.7-.4-1-.7-.3-.3-.5-.6-.7-1-.2-.4-.2-.8-.2-1.2s.1-.9.2-1.2c.2-.4.4-.7.7-1 .3-.3.6-.5 1-.7.4-.2.8-.2 1.2-.2s.9.1 1.2.2c.4.2.7.4 1 .7s.5.6.7 1c.2.4.2.8.2 1.2s-.1.9-.2 1.2c-.1.4-.4.7-.7 1zm-1 .5c.3-.1.7-.4.9-.6.3-.3.5-.6.6-.9.1-.3.2-.7.2-1.2s-.1-.8-.2-1.2c-.1-.3-.4-.7-.6-.9-.3-.3-.6-.5-.9-.6-.3-.1-.7-.2-1.2-.2-.4 0-.8.1-1.2.2-.3.1-.7.4-.9.6-.3.3-.5.6-.6.9-.2.4-.3.7-.3 1.2 0 .4.1.8.2 1.2.1.3.4.7.6.9.3.3.6.5.9.6.3.1.7.2 1.2.2s.9 0 1.3-.2zm-2.7-1.1c.2.2.4.4.7.5.3.1.5.1.8.1.3 0 .6-.1.9-.2.2-.1.5-.3.6-.5.2-.2.4-.4.5-.7.1-.3.2-.6.2-.9 0-.3-.1-.7-.2-.9-.1-.3-.3-.5-.5-.7-.2-.2-.4-.4-.7-.5-.2-.1-.5-.2-.8-.2-.3 0-.6.1-.9.2-.2.1-.5.3-.6.5-.2.2-.4.5-.5.7-.1.3-.2.5-.2.9 0 .3.1.7.2.9.1.4.3.6.5.8zm.6.7c-.3-.1-.6-.3-.8-.5-.2-.2-.4-.5-.5-.7-.1-.3-.2-.6-.2-1 0-.3.1-.7.2-.9.1-.3.3-.6.5-.8.2-.2.4-.4.7-.5.3-.1.6-.2.9-.2.3 0 .6.1.9.2.3.1.6.3.8.5.2.2.4.4.5.7.1.3.2.6.2 1 0 .3-.1.7-.2.9-.1.3-.3.6-.5.8-.2.2-.4.4-.7.5-.3.1-.6.2-.9.2-.3-.1-.6-.1-.9-.2zm4.9.6v-6h1l2.7 4.4V8.7h1v6.1h-.9l-2.9-4.6v4.6l-.9-.1zm.2-5.8v5.7h.5v-5l3.2 5.1h.6V8.9H83v4.9l-3-4.9h-.8zM71.7 23.4c-2.4 0-4.2 1.8-4.2 4.2 0 2.4 1.9 4.2 4.2 4.2 2.4 0 4.2-1.8 4.2-4.2.1-2.5-1.8-4.2-4.2-4.2zm0 6.7c-1.3 0-2.4-1.1-2.4-2.6s1.1-2.6 2.4-2.6c1.3 0 2.4 1 2.4 2.6 0 1.5-1.1 2.6-2.4 2.6zm-9.1-6.7c-2.4 0-4.2 1.8-4.2 4.2 0 2.4 1.9 4.2 4.2 4.2 2.4 0 4.2-1.8 4.2-4.2 0-2.5-1.9-4.2-4.2-4.2zm0 6.7c-1.3 0-2.4-1.1-2.4-2.6s1.1-2.6 2.4-2.6c1.3 0 2.4 1 2.4 2.6-.1 1.5-1.1 2.6-2.4 2.6zm-11-5.4v1.8h4.2c-.1 1-.5 1.8-1 2.3-.6.6-1.6 1.3-3.2 1.3C49 30 47 27.9 47 25.3s2.1-4.7 4.6-4.7c1.4 0 2.5.6 3.3 1.3l1.3-1.3c-1.1-1-2.5-1.8-4.4-1.8-3.5 0-6.6 3-6.6 6.5s3 6.5 6.6 6.5c2 0 3.3-.6 4.5-1.9 1.2-1.2 1.6-2.9 1.6-4.1 0-.4 0-.8-.1-1.1h-6.2zm44.8 1.4c-.4-1-1.4-2.7-3.6-2.7s-3.9 1.7-3.9 4.2c0 2.4 1.8 4.2 4.1 4.2 1.9 0 3.1-1.2 3.4-1.9l-1.4-1c-.5.7-1.1 1.2-2.1 1.2s-1.6-.4-2.1-1.3l5.6-2.4v-.3zm-5.7 1.4c0-1.6 1.3-2.5 2.2-2.5.7 0 1.4.4 1.6.9l-3.8 1.6zm-4.7 4h1.9V19.2H86v12.3zm-2.9-7.2c-.5-.5-1.3-1-2.3-1-2.1 0-4 1.9-4 4.2s1.9 4.1 4 4.1c1 0 1.8-.5 2.2-1h.1v.6c0 1.6-.9 2.5-2.3 2.5-1.1 0-1.9-.8-2.1-1.5l-1.5.8c.5 1.1 1.7 2.5 3.7 2.5 2.2 0 3.9-1.3 3.9-4.3v-7.5H83v.6zm-2.2 5.8c-1.3 0-2.4-1.1-2.4-2.6s1.1-2.6 2.4-2.6c1.3 0 2.3 1.1 2.3 2.6s-1 2.6-2.3 2.6zM105 19.2h-4.4v12.3h1.9v-4.6h2.6c2.1 0 4-1.5 4-3.8s-2.1-3.9-4.1-3.9zm.1 5.9h-2.7v-4.2h2.7c1.4 0 2.2 1.2 2.2 2.1-.2 1-1 2.1-2.2 2.1zm11.3-1.8c-1.4 0-2.8.6-3.3 1.9l1.7.7c.4-.7 1-.9 1.7-.9 1 0 1.9.6 2 1.6v.1c-.3-.2-1.1-.5-1.9-.5-1.8 0-3.5 1-3.5 2.8 0 1.7 1.5 2.8 3.1 2.8 1.3 0 1.9-.6 2.4-1.2h.1v1h1.8v-4.7c-.4-2.3-2.1-3.6-4.1-3.6zm-.2 6.8c-.6 0-1.5-.3-1.5-1.1 0-1 1.1-1.3 2-1.3.8 0 1.2.2 1.7.4-.2 1.2-1.2 2-2.2 2zm10.3-6.5l-2.1 5.3h-.1l-2.2-5.3h-2l3.2 7.5-1.9 4.1h1.9l5-11.6h-1.8zM110 31.5h1.9V19.2H110v12.3zM14.9 9.3c-.3.3-.4.8-.4 1.4v21.8c0 .6.2 1.1.5 1.4l.1.1 12.2-12.2v-.2L14.9 9.3zM31.9 25.9l-4-4v-.3l4-4 .1.1 4.8 2.8c1.4.8 1.4 2.1 0 2.9l-4.9 2.5zM31.7 26.1L27.5 22 15.2 34.3c.5.5 1.2.5 2.1.1l14.4-8.3zM31.7 17.3L17.3 9.1c-.9-.5-1.6-.4-2.1.1l12.3 12.2 4.2-4.1z"/><path class="st3" d="M31.3 25.7l-14.3 8c-.8.5-1.5.4-2 0l-.1.1.1.1c.5.4 1.2.5 2 0l14.3-8.2zM14.9 33.7c-.3-.3-.4-.8-.4-1.4v.1c0 .6.2 1.1.4 1.3zm21.3-10.8l-4.9 2.8.1.1 4.8-2.9c.7-.3 1-.8 1-1.3 0 .5-.4.9-1 1.3z"/></g></symbol><symbol id="appstore" viewBox="0 0 143 42"><style>.st2{fill:#fff}</style><path id="line" d="M137.9 42H5c-2.8 0-5-2.2-5-5V5c0-2.8 2.2-5 5-5h132.9c2.8-.1 5 2.1 5.1 4.9V37c0 2.8-2.2 5-5 5h-.1z" fill="#a6a6a6"/><path id="path-1" d="M137.9 41H5.1c-2.2.1-4-1.7-4.1-3.9V5c0-2.2 1.8-4 4-4h133c2.2 0 4.1 1.8 4.1 4v32c-.1 2.2-1.9 4-4.2 4z"/><path id="logo" class="st2" d="M31.9 20.8c0-3.4 2.8-5 2.9-5.1-1.1-1.7-3-2.7-5-2.7-2-.2-4.1 1.2-5.1 1.2-1.1 0-2.7-1.2-4.5-1.2-2.3 0-4.4 1.3-5.5 3.4-2.4 4.1-.6 10.2 1.7 13.5 1.1 1.6 2.5 3.4 4.2 3.4 1.7-.1 2.4-1.1 4.4-1.1 2.1 0 2.7 1.1 4.4 1 1.8 0 3-1.6 4.1-3.3 1.3-1.9 1.9-3.7 1.9-3.8 0 0-3.5-1.3-3.5-5.3zm-3.4-10c1-1.2 1.5-2.7 1.4-4.3-1.3.1-3 .9-4 2-.9 1-1.6 2.6-1.4 4.1 1.5.2 3-.7 4-1.8z"/><path id="text" class="st2" d="M56.7 33.1h-2.4L53 29h-4.6l-1.3 4.1h-2.3l4.6-14h2.8l4.5 14zm-4.1-5.9l-1.2-3.6-.7-2.6-.7 2.6-1.2 3.6h3.8zm15.8.7c.1 1.5-.4 3-1.4 4.1-.8.9-1.9 1.3-3.1 1.3-1.3 0-2.3-.5-2.9-1.4v5.3h-2.3V26.3l-.1-3.3h2l.1 1.6c.7-1.2 2-1.9 3.4-1.8 1.2 0 2.2.5 3 1.4.9 1 1.4 2.3 1.3 3.7zm-2.3.1c0-1-.2-1.8-.7-2.4-.5-.7-1.1-1-2-1-.6 0-1.1.2-1.5.5-.5.4-.7.8-.9 1.4l-.1.7v1.7c0 .7.2 1.3.7 1.9.5.5 1 .8 1.8.8s1.5-.3 2-1c.5-.8.7-1.7.7-2.6zm13.9-.1c.1 1.5-.4 3-1.4 4.1-.8.9-1.9 1.3-3.1 1.3-1.3 0-2.3-.5-2.9-1.4v5.3h-2.3V26.3l-.1-3.3h2l.2 1.6c.7-1.2 2-1.9 3.4-1.8 1.2 0 2.2.5 3 1.4.8.9 1.2 2.2 1.2 3.7zm-2.3.1c0-1-.2-1.8-.7-2.4-.5-.7-1.1-1-2-1-.6 0-1.1.2-1.5.5-.5.4-.7.8-.9 1.4l-.1.7v1.7c0 .7.2 1.3.7 1.9.5.5 1 .8 1.8.8s1.5-.3 2-1 .7-1.5.7-2.6zm15.4 1.1c0 1.2-.4 2.2-1.2 2.9-.9.8-2.2 1.2-3.8 1.2-1.5 0-2.7-.3-3.6-.9l.5-1.9c1 .6 2.1.9 3.3.9.8 0 1.5-.2 2-.6.5-.4.7-.9.7-1.5s-.2-1-.6-1.4c-.4-.4-1-.7-1.9-1.1-2.5-.9-3.7-2.2-3.7-4 0-1.1.4-2.1 1.3-2.8.9-.7 2-1.1 3.4-1.1 1.3 0 2.3.2 3.2.7l-.6 1.8c-.8-.4-1.8-.6-2.7-.6-.8 0-1.4.2-1.9.6-.4.3-.6.8-.6 1.3 0 .6.2 1 .6 1.4l2 1.1c1 .4 1.9.9 2.7 1.7.6.6.9 1.4.9 2.3zm7.4-4.4H98v4.9c0 1.2.4 1.9 1.3 1.9l1-.1.1 1.7c-.4.2-1 .2-1.8.2-.9 0-1.6-.3-2.1-.8s-.8-1.4-.8-2.7v-5.1h-1.3V23h1.5v-1.8l2.2-.7V23h2.5v1.7h-.1zm11.2 3.2c0 1.5-.4 2.8-1.3 3.8s-2.2 1.5-3.7 1.5-2.7-.5-3.6-1.5c-.9-1-1.3-2.2-1.3-3.7 0-1.6.5-2.8 1.4-3.8s2.1-1.5 3.7-1.5c1.5 0 2.7.5 3.6 1.5.8 1 1.2 2.2 1.2 3.7zm-2.3.1c0-.9-.2-1.7-.6-2.4-.5-.8-1.1-1.2-2-1.2s-1.6.4-2.1 1.2c-.4.7-.6 1.5-.6 2.4 0 .9.2 1.7.6 2.4.5.8 1.2 1.2 2 1.2.9 0 1.5-.4 2-1.2.5-.6.7-1.5.7-2.4zm9.7-3l-.7-.1c-.7 0-1.4.3-1.8.9-.4.5-.6 1.2-.6 2v5.3h-2.3v-6.9l-.1-3.2h2l.1 1.9h.1c.2-.6.6-1.2 1.1-1.6.5-.4 1-.5 1.6-.5h.6V25zm10.1 2.6l-.1 1h-6.8c0 .9.3 1.7 1 2.3.6.5 1.3.7 2.2.7 1 0 1.9-.2 2.7-.5l.4 1.6c-1.1.4-2.2.6-3.4.6-1.4.1-2.7-.4-3.7-1.4-.9-1-1.4-2.3-1.3-3.7 0-1.5.4-2.8 1.3-3.8.8-1.1 2.1-1.6 3.5-1.6 1.5 0 2.6.5 3.3 1.6.6.8.9 1.9.9 3.2zM127 27c0-.6-.1-1.2-.4-1.7-.4-.6-1.1-.9-1.8-.9s-1.3.3-1.8.9c-.4.5-.6 1.1-.7 1.7h4.7z"/><path id="top" class="st2" d="M51.9 10.5c0 1.2-.4 2.2-1.1 2.8s-1.7.9-3 .9l-1.6-.1V7.3l1.9-.1c1.2 0 2.1.3 2.7.8.8.6 1.1 1.4 1.1 2.5zm-1.2 0c0-.8-.2-1.4-.6-1.8-.4-.4-1.1-.6-1.9-.6l-.9.1v5.1h.8c.8 0 1.5-.2 2-.7.4-.5.6-1.2.6-2.1zm7.4 1.1c0 .8-.2 1.4-.7 1.9s-1.1.8-1.8.8-1.3-.2-1.7-.7c-.5-.6-.7-1.2-.7-1.9 0-.8.2-1.4.7-1.9.4-.5 1-.7 1.8-.7.7 0 1.3.2 1.8.7.4.4.6 1 .6 1.8zm-1.2 0c0-.5-.1-.8-.3-1.2-.2-.4-.6-.6-1-.6s-.8.2-1 .6l-.3 1.2c0 .5.1.8.3 1.2.2.4.6.6 1 .6s.8-.2 1-.6c.2-.3.3-.7.3-1.2zm9.5-2.4l-1.6 4.9h-1l-.6-2.1-.4-1.6-.4 1.6-.7 2.1h-1l-1.5-4.9h1.1l.6 2.4.3 1.6.4-1.6.7-2.4h.9l.7 2.3.4 1.6.3-1.6.6-2.3h1.2zm5.7 4.9H71v-2.8c0-.9-.3-1.3-1-1.3-.3 0-.6.1-.8.4-.2.2-.3.5-.3.8v2.9h-1.1V9.2h1l.1.8.6-.6c.3-.2.6-.3 1-.3.5 0 .9.1 1.2.4.4.4.6.9.6 1.6v3h-.2zm3.1 0h-1.1V6.9h1.1v7.2zm6.5-2.5c0 .8-.2 1.4-.7 1.9s-1.1.8-1.8.8-1.3-.2-1.7-.7c-.4-.5-.7-1.1-.7-1.8 0-.8.2-1.4.7-1.9.4-.5 1.1-.7 1.8-.7s1.3.2 1.8.7c.4.3.6.9.6 1.7zm-1.1 0c0-.5-.1-.8-.3-1.2-.2-.4-.6-.6-1-.6s-.8.2-1 .6c-.2.3-.3.7-.3 1.2s.1.8.3 1.2c.2.4.6.6 1 .6s.8-.2 1-.6c.2-.3.3-.7.3-1.2zm6.5 2.5h-1l-.1-.6c-.3.5-.8.7-1.5.7-.5 0-.9-.1-1.1-.4-.3-.3-.4-.6-.4-1 0-.6.3-1.1.8-1.4.6-.4 1.4-.5 2.1-.5v-.1c0-.7-.3-1-1-1-.5 0-.9.1-1.3.4l-.2-.7c.5-.3 1.1-.4 1.7-.4 1.3 0 2 .7 2 2v3zm-1.2-1.7v-.8c-1.2 0-1.8.3-1.8 1l.2.6.6.2.7-.2.4-.6-.1-.2zm7.5 1.7h-1l-.1-.8c-.3.6-.8.9-1.6.9-.6 0-1.1-.2-1.5-.7-.4-.5-.6-1.1-.6-1.8 0-.8.2-1.4.6-1.9.4-.5.9-.7 1.5-.7.7 0 1.1.2 1.4.7V6.9h1.1v5.9l.2 1.3zM92.2 12v-1.1l-.4-.7c-.2-.2-.4-.3-.7-.3-.4 0-.7.2-1 .5-.2.3-.4.7-.4 1.3 0 .5.1.9.3 1.2s.6.5 1 .5.7-.1.9-.4c.2-.3.3-.6.3-1zm10.7-.4c0 .8-.2 1.4-.7 1.9s-1.1.8-1.8.8-1.3-.2-1.7-.7-.7-1.1-.7-1.8c0-.8.2-1.4.7-1.9.4-.6 1-.8 1.8-.8.7 0 1.3.2 1.8.7.3.4.6 1 .6 1.8zm-1.2 0c0-.5-.1-.8-.3-1.2-.2-.4-.6-.6-1-.6s-.8.2-1 .6c-.2.3-.3.7-.3 1.2s.1.8.3 1.2c.2.4.6.6 1 .6s.8-.2 1-.6c.2-.3.3-.7.3-1.2zm7.1 2.5h-1.1v-2.8c0-.9-.3-1.3-1-1.3-.3 0-.6.1-.8.4-.2.2-.3.5-.3.8v2.9h-1.1V9.2h1v.7l.6-.6c.3-.2.6-.3 1-.3.5 0 .9.1 1.2.4.4.4.6.9.6 1.6l-.1 3.1zm7.5-4.1h-1.2v2.4c0 .6.2.9.6.9l.5-.1v.8l-.9.1c-.4 0-.8-.1-1-.4s-.4-.7-.4-1.3V10h-.7v-.8h.7v-1l1.1-.3v1.2h1.2l.1.9zm5.8 4.1H121v-2.8c0-.9-.3-1.3-1-1.3-.5 0-.9.3-1.1.8l-.1.4v3h-1.1V6.9h1.1v3c.3-.5.8-.8 1.5-.8.5 0 .8.1 1.1.4.4.4.6.9.6 1.7l.1 2.9zm6.1-2.7v.5h-3.3c0 .5.2.9.5 1.1.3.2.6.3 1.1.3l1.3-.2.2.8c-.5.2-1 .3-1.7.3-.8 0-1.4-.2-1.8-.7s-.7-1.1-.7-1.8.2-1.4.6-1.9 1-.8 1.7-.8 1.3.3 1.6.8c.3.5.5 1 .5 1.6zm-1.1-.3l-.2-.8c-.2-.3-.5-.5-.9-.5s-.7.1-.9.4c-.2.2-.3.5-.3.9h2.3z"/></symbol><symbol id="facebook" viewBox="0 0 96.124 96.123"><path d="M72.089.02L59.624 0C45.62 0 36.57 9.285 36.57 23.656v10.907H24.037a1.96 1.96 0 00-1.96 1.961v15.803a1.96 1.96 0 001.96 1.96H36.57v39.876a1.96 1.96 0 001.96 1.96h16.352a1.96 1.96 0 001.96-1.96V54.287h14.654a1.96 1.96 0 001.96-1.96l.006-15.803a1.963 1.963 0 00-1.961-1.961H56.842v-9.246c0-4.444 1.059-6.7 6.848-6.7l8.397-.003a1.96 1.96 0 001.959-1.96V1.98A1.96 1.96 0 0072.089.02z"/></symbol><symbol id="mastercard" viewBox="0 0 256 199"><path class="st0" d="M46.5 198v-13.2c0-5-3.1-8.3-8.3-8.3-2.6 0-5.5.9-7.5 3.7-1.5-2.4-3.7-3.7-7-3.7-2.2 0-4.4.7-6.1 3.1V177H13v21h4.6v-11.6c0-3.7 2-5.5 5-5.5s4.6 2 4.6 5.5V198h4.6v-11.6c0-3.7 2.2-5.5 5-5.5 3.1 0 4.6 2 4.6 5.5V198h5.1zm68.3-21.1h-7.5v-6.4h-4.6v6.4h-4.2v4.2h4.2v9.7c0 4.8 2 7.7 7.2 7.7 2 0 4.2-.7 5.7-1.5l-1.3-4c-1.3.9-2.9 1.1-4 1.1-2.2 0-3.1-1.3-3.1-3.5v-9.4h7.5v-4.3h.1zm39.1-.4c-2.6 0-4.4 1.3-5.5 3.1V177h-4.6v21h4.6v-11.9c0-3.5 1.5-5.5 4.4-5.5.9 0 2 .2 2.9.4l1.3-4.4c-.9-.1-2.2-.1-3.1-.1zm-59.1 2.2c-2.2-1.5-5.3-2.2-8.6-2.2-5.3 0-8.8 2.6-8.8 6.8 0 3.5 2.6 5.5 7.2 6.1l2.2.2c2.4.4 3.7 1.1 3.7 2.2 0 1.5-1.8 2.6-4.8 2.6s-5.5-1.1-7-2.2l-2.2 3.5c2.4 1.8 5.7 2.6 9 2.6 6.1 0 9.7-2.9 9.7-6.8 0-3.7-2.9-5.7-7.2-6.4l-2.2-.2c-2-.2-3.5-.7-3.5-2 0-1.5 1.5-2.4 4-2.4 2.6 0 5.3 1.1 6.6 1.8l1.9-3.6zm122.5-2.2c-2.6 0-4.4 1.3-5.5 3.1V177h-4.6v21h4.6v-11.9c0-3.5 1.5-5.5 4.4-5.5.9 0 2 .2 2.9.4l1.3-4.4c-.9-.1-2.2-.1-3.1-.1zm-58.8 11c0 6.4 4.4 11 11.2 11 3.1 0 5.3-.7 7.5-2.4l-2.2-3.7c-1.8 1.3-3.5 2-5.5 2-3.7 0-6.4-2.6-6.4-6.8 0-4 2.6-6.6 6.4-6.8 2 0 3.7.7 5.5 2l2.2-3.7c-2.2-1.8-4.4-2.4-7.5-2.4-6.8-.2-11.2 4.4-11.2 10.8zm42.6 0V177h-4.6v2.6c-1.5-2-3.7-3.1-6.6-3.1-5.9 0-10.5 4.6-10.5 11s4.6 11 10.5 11c3.1 0 5.3-1.1 6.6-3.1v2.6h4.6v-10.5zm-16.9 0c0-3.7 2.4-6.8 6.4-6.8 3.7 0 6.4 2.9 6.4 6.8 0 3.7-2.6 6.8-6.4 6.8-4-.2-6.4-3.1-6.4-6.8zm-55.1-11c-6.1 0-10.5 4.4-10.5 11s4.4 11 10.8 11c3.1 0 6.1-.9 8.6-2.9l-2.2-3.3c-1.8 1.3-4 2.2-6.1 2.2-2.9 0-5.7-1.3-6.4-5h15.6v-1.8c.1-6.8-3.9-11.2-9.8-11.2zm0 3.9c2.9 0 4.8 1.8 5.3 5h-11c.4-2.8 2.4-5 5.7-5zm114.4 7.1v-18.9h-4.6v11c-1.5-2-3.7-3.1-6.6-3.1-5.9 0-10.5 4.6-10.5 11s4.6 11 10.5 11c3.1 0 5.3-1.1 6.6-3.1v2.6h4.6v-10.5zm-17 0c0-3.7 2.4-6.8 6.4-6.8 3.7 0 6.4 2.9 6.4 6.8 0 3.7-2.6 6.8-6.4 6.8-3.9-.2-6.4-3.1-6.4-6.8zm-154.1 0V177h-4.6v2.6c-1.5-2-3.7-3.1-6.6-3.1-5.9 0-10.5 4.6-10.5 11s4.6 11 10.5 11c3.1 0 5.3-1.1 6.6-3.1v2.6h4.6v-10.5zm-17.1 0c0-3.7 2.4-6.8 6.4-6.8 3.7 0 6.4 2.9 6.4 6.8 0 3.7-2.6 6.8-6.4 6.8-4-.2-6.4-3.1-6.4-6.8z"/><path d="M93.3 16.9h69.2v124.3H93.3z"/><path d="M97.7 79c0-25.2 11.9-47.6 30.1-62.1C114.4 6.4 97.5 0 79 0 35.3 0 0 35.3 0 79s35.3 79 79 79c18.4 0 35.3-6.4 48.7-16.9-18.2-14.2-30-36.8-30-62.1z"/><path class="st0" d="M255.7 79c0 43.7-35.3 79-79 79-18.4 0-35.3-6.4-48.7-16.9 18.4-14.5 30.1-36.9 30.1-62.1S146.2 31.4 128 16.9C141.4 6.4 158.3 0 176.7 0c43.7 0 79 35.6 79 79z"/></symbol><symbol id="qiwi" viewBox="0 0 92.3 40"><g id="base"><path class="st0" d="M46.9 29.2h1.9c.9 0 1.6.4 1.6 1.2 0 .4-.3.8-.7 1 .5.1.9.6.9 1.1 0 .9-.7 1.3-1.7 1.3h-2v-4.6zm1.8 2c.5 0 .8-.3.8-.7s-.3-.6-.8-.6h-.8v1.4l.8-.1zm0 2.1c.7 0 1-.3 1-.7s-.3-.7-1-.7h-1v1.5l1-.1zM53.9 29.1c.7 0 1.3.2 1.8.7l-.4.6c-.3-.3-.8-.5-1.3-.5-.9 0-1.6.7-1.6 1.6v.1c0 .9.7 1.6 1.6 1.7h.1c.5 0 1.1-.2 1.4-.6l.4.7c-.5.5-1.2.8-1.9.8-1.4 0-2.4-1.1-2.4-2.4-.2-1.6.9-2.7 2.3-2.7M58.6 29.1c1.1 0 2 .9 2 2V31.7h-3.4c0 .9.7 1.5 1.5 1.6h.1c.5 0 1-.2 1.4-.5l.4.7c-.5.4-1.1.7-1.8.7-1.3.1-2.4-1-2.5-2.3v-.2c-.1-1.3.9-2.4 2.1-2.4.1-.2.2-.2.2-.2m1.2 1.9c.1-.6-.4-1.2-1-1.2h-.1c-.7 0-1.3.5-1.4 1.2h2.5zm-2.3-3.7h.7v.9h-.7v-.9zm1.5 0h.7v.9H59v-.9zM64 29.2h4.1v4.7h-.9V30h-2.3v3.9H64zM69.5 29.2h.8v.8c.3-.6.9-.9 1.6-.9 1.3 0 2 1 2 2.4.2 1.2-.7 2.3-1.9 2.4h-.2c-.6 0-1.1-.3-1.4-.8v2.5h-.9v-6.4zm2.2 4c.7 0 1.3-.6 1.3-1.7s-.5-1.7-1.3-1.7-1.3.5-1.3 1.7c-.1.9.4 1.7 1.3 1.7M77.2 29.1c1.3 0 2.4 1.2 2.4 2.5S78.4 34 77.1 34s-2.4-1.1-2.4-2.4c0-1.4 1.1-2.5 2.5-2.5m0 4.1c.9 0 1.7-.7 1.7-1.6s-.7-1.7-1.6-1.7-1.7.7-1.7 1.6v.1c0 .8.7 1.6 1.6 1.6M80.6 29.2h.9v3.9h1.7v-3.9h.9v3.9h1.7v-3.9h.9v3.9h.6V35h-.8v-1.1h-5.9zM90.3 29.1c1.1 0 2 .9 2 2V31.7h-3.4c0 .9.7 1.5 1.5 1.6h.1c.5 0 1-.2 1.4-.5l.4.7c-.5.4-1.1.7-1.8.7-1.3.1-2.4-1-2.5-2.3v-.2c-.1-1.3.9-2.4 2.1-2.4 0-.2.1-.2.2-.2m1.1 1.9c.1-.6-.4-1.2-1-1.2h-.1c-.7 0-1.3.5-1.4 1.2h2.5zM51.3 18.4c2.1 0 3.3-1.8 3.3-4.8s-1.2-4.8-3.3-4.8-3.4 1.7-3.4 4.8 1.3 4.8 3.4 4.8m5.8 6.6c-.1.1-.3.1-.4 0l-1-1.4c-1-1.4-2.7-2.2-4.4-2.1-4.2 0-6.9-3-6.9-7.9s2.7-7.9 6.9-7.9 6.8 3 6.8 7.9c0 2.5-.9 5-2.3 5.8-.3.1-.3.2 0 .3 1 .3 1.9 1 2.5 1.9l1 1.3c.1.1.1.3 0 .4L57.1 25zM60.8 6h2.9c.2 0 .3.1.3.3V21c0 .2-.1.3-.3.3h-2.9c-.2 0-.3-.1-.3-.3V6.3c0-.2.2-.3.3-.3zM84 16.6c-.4 1.5-.7 2.9-1 4.4 0 .1-.1.3-.3.3h-4c-.1 0-.3-.1-.3-.2-.2-1.2-.5-2.4-.8-3.6l-.6-2.9c-.1-.6-.3-1.5-.4-2.2 0-.3-.3-.3-.3 0-.1.8-.3 1.6-.4 2.2l-.7 2.8c-.3 1.2-.5 2.3-.8 3.6 0 .1-.1.3-.3.3h-3.9c-.1 0-.3-.1-.3-.2-.3-1.5-.6-2.9-1-4.4L66.2 6.3c-.1-.2 0-.3.2-.3h3c.2 0 .3.1.3.2l1.4 5.8c.4 1.6.6 3.1.8 4.7 0 .3.3.3.4 0 .2-1.6.5-3.2.9-4.7l1.6-5.8c.1-.2.2-.3.4-.2h2.5c.1 0 .3.1.3.2l1.6 5.8c.4 1.6.7 3.1.9 4.7 0 .3.3.3.4 0 .1-1.6.4-3.2.8-4.7l1.5-5.8c0-.1.1-.2.2-.2h3c.2 0 .3.1.2.3L84 16.6zM89 6h3c.2 0 .3.1.3.3V21c0 .2-.1.3-.3.3h-3c-.2 0-.3-.1-.3-.3V6.3c.1-.2.2-.3.3-.3zM38.6 39.3c.4.5-.2.9-.6.5-4.1-3.6-7.5-4.7-10.9-4.8-1.8 0-3.7.1-5.5.3l-1.1.1H20c-.7.1-1.3.1-2 .1-3.2 0-6.3-.8-9-2.3s-5-3.7-6.5-6.5C.8 24 0 21 0 17.9c0-3.2.8-6.3 2.4-9C5.5 3.4 11.3 0 17.7 0c3.2 0 6.3.8 9.1 2.3 2.7 1.5 5 3.8 6.6 6.5 1.6 2.7 2.4 5.8 2.4 9 0 1.2-.1 2.4-.4 3.6 0 .2-.1.4-.1.6s-.1.4-.2.6c-.5 1.5-1.2 2.9-2 4.3-.1.2-.2 0-.2-.1-.2-2.5-1.6-4.7-3.7-6.1l-.1-.1c-.4-.2-.7-.4-1.1-.6-.5-.2-1.1-.4-1.6-.6-.4-.1-1.1 0-.9-.3 1.3-.1 2.5-.1 3.8 0h.1c0-.4.1-.8.1-1.3.1-3.2-1.2-6.3-3.5-8.5C23.9 7.2 20.9 6 17.8 6c-3.1-.1-6.1 1.2-8.2 3.4-2.2 2.2-3.4 5.2-3.3 8.4-.1 3.1 1.2 6.2 3.4 8.3 2.1 2.2 5.1 3.5 8.1 3.4h.5v-.1c-.2-2.3-.2-4.3.3-3.5.2.3.3.5.5.8.6.8 1.2 1.6 1.9 2.4l.1.1c2.3 2.3 4.5 2.9 6.9 3.4l1.2.3c2.8.8 5.8 2 9.4 6.4m-7.8-14.1c-.4-.1-.6 0-.7.2-.2.6 0 1.2.3 1.7.4.6.7.9 1 .9.1 0 .2 0 .2-.1.2-.3.2-.7.1-1 0-.7-.4-1.3-.9-1.7m-4 2.9c-.3 0-.6.1-.8.4-.4.8-.2 1.7.5 2.2.3.3.8.4 1.2.4.4 0 .8-.2 1.1-.5.4-.6.2-1.4-.6-2-.5-.3-.9-.5-1.4-.5"/></g></symbol><symbol id="visa" viewBox="0 0 47.834 47.834"><path d="M19.153 16.799l-2.431 14.266h3.888l2.433-14.266zM13.462 16.815l-3.808 9.729-.406-1.469c-.751-1.77-2.883-4.312-5.386-5.914l3.482 11.897 4.114-.007 6.123-14.239-4.119.003z"/><path d="M7.772 17.836c-.226-.869-.881-1.128-1.694-1.159H.05l-.05.284c4.691 1.138 7.795 3.88 9.083 7.177l-1.311-6.302zM30.923 19.534a7.178 7.178 0 012.91.546l.351.165.526-3.092c-.77-.289-1.977-.599-3.483-.599-3.842 0-6.55 1.935-6.571 4.708-.025 2.049 1.929 3.193 3.405 3.876 1.515.7 2.023 1.145 2.016 1.77-.012.955-1.208 1.393-2.325 1.393-1.557 0-2.384-.215-3.661-.747l-.501-.228-.547 3.193c.91.399 2.589.742 4.332.76 4.087 0 6.743-1.912 6.771-4.875.017-1.621-1.02-2.858-3.267-3.873-1.36-.662-2.192-1.102-2.184-1.77 0-.593.706-1.227 2.228-1.227zM44.688 16.815h-3.004c-.933 0-1.627.254-2.037 1.184l-5.773 13.074h4.083s.666-1.758.817-2.143l4.979.006c.116.498.474 2.137.474 2.137h3.607l-3.146-14.258zm-4.795 9.195c.32-.819 1.549-3.987 1.549-3.987-.021.039.317-.825.518-1.362l.262 1.23.901 4.119h-3.23z"/></symbol><symbol id="vk" viewBox="0 0 548.358 548.358"><path d="M545.451 400.298c-.664-1.431-1.283-2.618-1.858-3.569-9.514-17.135-27.695-38.167-54.532-63.102l-.567-.571-.284-.28-.287-.287h-.288c-12.18-11.611-19.893-19.418-23.123-23.415-5.91-7.614-7.234-15.321-4.004-23.13 2.282-5.9 10.854-18.36 25.696-37.397 7.807-10.089 13.99-18.175 18.556-24.267 32.931-43.78 47.208-71.756 42.828-83.939l-1.701-2.847c-1.143-1.714-4.093-3.282-8.846-4.712-4.764-1.427-10.853-1.663-18.278-.712l-82.224.568c-1.332-.472-3.234-.428-5.712.144l-3.713.859-1.431.715-1.136.859c-.952.568-1.999 1.567-3.142 2.995-1.137 1.423-2.088 3.093-2.848 4.996-8.952 23.031-19.13 44.444-30.553 64.238-7.043 11.803-13.511 22.032-19.418 30.693-5.899 8.658-10.848 15.037-14.842 19.126-4 4.093-7.61 7.372-10.852 9.849-3.237 2.478-5.708 3.525-7.419 3.142-1.715-.383-3.33-.763-4.859-1.143-2.663-1.714-4.805-4.045-6.42-6.995-1.622-2.95-2.714-6.663-3.285-11.136-.568-4.476-.904-8.326-1-11.563-.089-3.233-.048-7.806.145-13.706.198-5.903.287-9.897.287-11.991 0-7.234.141-15.085.424-23.555.288-8.47.521-15.181.716-20.125.194-4.949.284-10.185.284-15.705s-.336-9.849-1-12.991a44.442 44.442 0 00-2.99-9.137c-1.335-2.95-3.289-5.232-5.853-6.852-2.569-1.618-5.763-2.902-9.564-3.856-10.089-2.283-22.936-3.518-38.547-3.71-35.401-.38-58.148 1.906-68.236 6.855-3.997 2.091-7.614 4.948-10.848 8.562-3.427 4.189-3.905 6.475-1.431 6.851 11.422 1.711 19.508 5.804 24.267 12.275l1.715 3.429c1.334 2.474 2.666 6.854 3.999 13.134 1.331 6.28 2.19 13.227 2.568 20.837.95 13.897.95 25.793 0 35.689-.953 9.9-1.853 17.607-2.712 23.127-.859 5.52-2.143 9.993-3.855 13.418-1.715 3.426-2.856 5.52-3.428 6.28-.571.76-1.047 1.239-1.425 1.427a21.387 21.387 0 01-7.71 1.431c-2.667 0-5.901-1.334-9.707-4-3.805-2.666-7.754-6.328-11.847-10.992-4.093-4.665-8.709-11.184-13.85-19.558-5.137-8.374-10.467-18.271-15.987-29.691l-4.567-8.282c-2.855-5.328-6.755-13.086-11.704-23.267-4.952-10.185-9.329-20.037-13.134-29.554-1.521-3.997-3.806-7.04-6.851-9.134l-1.429-.859c-.95-.76-2.475-1.567-4.567-2.427a30.301 30.301 0 00-6.567-1.854l-78.229.568c-7.994 0-13.418 1.811-16.274 5.428l-1.143 1.711c-.571.953-.859 2.475-.859 4.57 0 2.094.571 4.664 1.714 7.707 11.42 26.84 23.839 52.725 37.257 77.659 13.418 24.934 25.078 45.019 34.973 60.237 9.897 15.229 19.985 29.602 30.264 43.112 10.279 13.515 17.083 22.176 20.412 25.981 3.333 3.812 5.951 6.662 7.854 8.565l7.139 6.851c4.568 4.569 11.276 10.041 20.127 16.416 8.853 6.379 18.654 12.659 29.408 18.85 10.756 6.181 23.269 11.225 37.546 15.126 14.275 3.905 28.169 5.472 41.684 4.716h32.834c6.659-.575 11.704-2.669 15.133-6.283l1.136-1.431c.764-1.136 1.479-2.901 2.139-5.276.668-2.379 1-5 1-7.851-.195-8.183.428-15.558 1.852-22.124 1.423-6.564 3.045-11.513 4.859-14.846 1.813-3.33 3.859-6.14 6.136-8.418 2.282-2.283 3.908-3.666 4.862-4.142.948-.479 1.705-.804 2.276-.999 4.568-1.522 9.944-.048 16.136 4.429 6.187 4.473 11.99 9.996 17.418 16.56 5.425 6.57 11.943 13.941 19.555 22.124 7.617 8.186 14.277 14.271 19.985 18.274l5.708 3.426c3.812 2.286 8.761 4.38 14.853 6.283 6.081 1.902 11.409 2.378 15.984 1.427l73.087-1.14c7.229 0 12.854-1.197 16.844-3.572 3.998-2.379 6.373-5 7.139-7.851.764-2.854.805-6.092.145-9.712-.677-3.611-1.344-6.136-2.008-7.563z"/></symbol><symbol id="yandex-money" viewBox="0 0 144 40"><g id="base"><path class="st0" d="M6.9 20.8l-4 9H0l4.4-9.6c-2.1-1.1-3.4-3-3.4-6.5 0-4.9 3.1-7.4 6.8-7.4h3.8v23.5H9v-9H6.9zM9 8.4H7.7c-2 0-4 1.3-4 5.3s1.8 5 4 5H9V8.4zM23.8 13.2v16.6h-2.5v-7.4h-3.8v7.4h-2.6V13.2h2.6v7h3.8v-7h2.5zM37 33.1h-2.3v-3.3h-7.1V33h-2.3v-5.3h1c1.5-3.5 1.7-8.6 1.7-13v-1.5h7.7v14.5H37v5.4zm-3.9-17.8h-2.9v.3c0 3.5-.2 8.6-1.5 12.1h4.4V15.3zM44 30c-3.4 0-5.5-2.7-5.5-7.8 0-5.3 1.5-9.2 5-9.2 2.8 0 4.6 2.1 4.6 7.7v1.4h-6.9c0 3.8 1 5.7 3.1 5.7 1.2 0 2.3-.4 3.2-1.1l.6 2c-1.2.9-2.6 1.4-4.1 1.3zm-2.8-10h4.2c0-2.8-.5-4.9-1.9-4.9S41.3 17 41.2 20zm12 1.6v8.2h-2.5V13.2h2.6v7.7l4-7.7h2.6L55.7 21l4.7 8.8h-2.8l-4.4-8.2zm7.5 0c0-5.2 2-8.5 5.9-8.5 1.1 0 2.2.3 3.1.8l-.3 2.4c-.7-.7-1.7-1.1-2.7-1.2-1.8 0-3.2 2.1-3.2 6.2s1 6.5 3.1 6.5c1 0 2-.3 2.8-1l.6 1.9c-1 .8-2.2 1.3-3.4 1.2-3.7.1-5.8-2.7-5.9-8.3zM87.3 29.8h-10l-.3 3.9h-1.2v-5.3h.7c1.2-1 1.7-3.6 2-6.9s.5-8.7.6-15.2h8.2v22.1h1.6v5.3h-1.3l-.3-3.9zM85.6 7.6h-5.1c-.1 5.9-.3 10.5-.5 13.9s-.8 5.9-1.7 6.9h7.3V7.6zM95.6 28.8c1.3 0 2.6-.7 3.4-1.8l.5 1.3c-.9 1.2-2.4 1.9-3.9 1.9-3.5 0-5.1-3.2-5.1-8.6s2-8.6 4.8-8.6 4.7 3 4.2 8.9H92c.1 4.4 1.2 6.9 3.6 6.9zM92 20.6h6c.3-4.4-1.1-6.4-2.7-6.4s-3.1 2.2-3.3 6.4zM109.6 21.8H104v8h-1.5V13.2h1.5v7.3h5.7v-7.3h1.5v16.6h-1.5l-.1-8zM114.8 13.2h1.5v6.1h1.2c3.2 0 5.2 1.7 5.2 5.2s-2.2 5.3-5.3 5.3h-2.7V13.2h.1zm1.5 7.4v8h1c2.3 0 3.9-1.1 3.9-4s-1.4-4-3.8-4h-1.1zM126.9 14.5v15.3h-1.5V13.2h7v1.3h-5.5zM142.5 18.3c0-.8 0-1.5.1-2.3h-.1c-.2.7-.5 1.5-.9 2.1l-5.4 11.6H135V13.2h1.4v11.5c0 .9-.1 1.6-.1 2.3h.1c.2-.8.5-1.5.9-2.2l5.4-11.6h1.3v16.6h-1.5V18.3z"/></g></symbol></symbol><symbol id="mastercard" viewBox="0 0 256 199"><path class="st0" d="M46.5 198v-13.2c0-5-3.1-8.3-8.3-8.3-2.6 0-5.5.9-7.5 3.7-1.5-2.4-3.7-3.7-7-3.7-2.2 0-4.4.7-6.1 3.1V177H13v21h4.6v-11.6c0-3.7 2-5.5 5-5.5s4.6 2 4.6 5.5V198h4.6v-11.6c0-3.7 2.2-5.5 5-5.5 3.1 0 4.6 2 4.6 5.5V198h5.1zm68.3-21.1h-7.5v-6.4h-4.6v6.4h-4.2v4.2h4.2v9.7c0 4.8 2 7.7 7.2 7.7 2 0 4.2-.7 5.7-1.5l-1.3-4c-1.3.9-2.9 1.1-4 1.1-2.2 0-3.1-1.3-3.1-3.5v-9.4h7.5v-4.3h.1zm39.1-.4c-2.6 0-4.4 1.3-5.5 3.1V177h-4.6v21h4.6v-11.9c0-3.5 1.5-5.5 4.4-5.5.9 0 2 .2 2.9.4l1.3-4.4c-.9-.1-2.2-.1-3.1-.1zm-59.1 2.2c-2.2-1.5-5.3-2.2-8.6-2.2-5.3 0-8.8 2.6-8.8 6.8 0 3.5 2.6 5.5 7.2 6.1l2.2.2c2.4.4 3.7 1.1 3.7 2.2 0 1.5-1.8 2.6-4.8 2.6s-5.5-1.1-7-2.2l-2.2 3.5c2.4 1.8 5.7 2.6 9 2.6 6.1 0 9.7-2.9 9.7-6.8 0-3.7-2.9-5.7-7.2-6.4l-2.2-.2c-2-.2-3.5-.7-3.5-2 0-1.5 1.5-2.4 4-2.4 2.6 0 5.3 1.1 6.6 1.8l1.9-3.6zm122.5-2.2c-2.6 0-4.4 1.3-5.5 3.1V177h-4.6v21h4.6v-11.9c0-3.5 1.5-5.5 4.4-5.5.9 0 2 .2 2.9.4l1.3-4.4c-.9-.1-2.2-.1-3.1-.1zm-58.8 11c0 6.4 4.4 11 11.2 11 3.1 0 5.3-.7 7.5-2.4l-2.2-3.7c-1.8 1.3-3.5 2-5.5 2-3.7 0-6.4-2.6-6.4-6.8 0-4 2.6-6.6 6.4-6.8 2 0 3.7.7 5.5 2l2.2-3.7c-2.2-1.8-4.4-2.4-7.5-2.4-6.8-.2-11.2 4.4-11.2 10.8zm42.6 0V177h-4.6v2.6c-1.5-2-3.7-3.1-6.6-3.1-5.9 0-10.5 4.6-10.5 11s4.6 11 10.5 11c3.1 0 5.3-1.1 6.6-3.1v2.6h4.6v-10.5zm-16.9 0c0-3.7 2.4-6.8 6.4-6.8 3.7 0 6.4 2.9 6.4 6.8 0 3.7-2.6 6.8-6.4 6.8-4-.2-6.4-3.1-6.4-6.8zm-55.1-11c-6.1 0-10.5 4.4-10.5 11s4.4 11 10.8 11c3.1 0 6.1-.9 8.6-2.9l-2.2-3.3c-1.8 1.3-4 2.2-6.1 2.2-2.9 0-5.7-1.3-6.4-5h15.6v-1.8c.1-6.8-3.9-11.2-9.8-11.2zm0 3.9c2.9 0 4.8 1.8 5.3 5h-11c.4-2.8 2.4-5 5.7-5zm114.4 7.1v-18.9h-4.6v11c-1.5-2-3.7-3.1-6.6-3.1-5.9 0-10.5 4.6-10.5 11s4.6 11 10.5 11c3.1 0 5.3-1.1 6.6-3.1v2.6h4.6v-10.5zm-17 0c0-3.7 2.4-6.8 6.4-6.8 3.7 0 6.4 2.9 6.4 6.8 0 3.7-2.6 6.8-6.4 6.8-3.9-.2-6.4-3.1-6.4-6.8zm-154.1 0V177h-4.6v2.6c-1.5-2-3.7-3.1-6.6-3.1-5.9 0-10.5 4.6-10.5 11s4.6 11 10.5 11c3.1 0 5.3-1.1 6.6-3.1v2.6h4.6v-10.5zm-17.1 0c0-3.7 2.4-6.8 6.4-6.8 3.7 0 6.4 2.9 6.4 6.8 0 3.7-2.6 6.8-6.4 6.8-4-.2-6.4-3.1-6.4-6.8z"/><path d="M93.3 16.9h69.2v124.3H93.3z"/><path d="M97.7 79c0-25.2 11.9-47.6 30.1-62.1C114.4 6.4 97.5 0 79 0 35.3 0 0 35.3 0 79s35.3 79 79 79c18.4 0 35.3-6.4 48.7-16.9-18.2-14.2-30-36.8-30-62.1z"/><path class="st0" d="M255.7 79c0 43.7-35.3 79-79 79-18.4 0-35.3-6.4-48.7-16.9 18.4-14.5 30.1-36.9 30.1-62.1S146.2 31.4 128 16.9C141.4 6.4 158.3 0 176.7 0c43.7 0 79 35.6 79 79z"/></symbol><symbol id="qiwi" viewBox="0 0 92.3 40"><g id="base"><path class="st0" d="M46.9 29.2h1.9c.9 0 1.6.4 1.6 1.2 0 .4-.3.8-.7 1 .5.1.9.6.9 1.1 0 .9-.7 1.3-1.7 1.3h-2v-4.6zm1.8 2c.5 0 .8-.3.8-.7s-.3-.6-.8-.6h-.8v1.4l.8-.1zm0 2.1c.7 0 1-.3 1-.7s-.3-.7-1-.7h-1v1.5l1-.1zM53.9 29.1c.7 0 1.3.2 1.8.7l-.4.6c-.3-.3-.8-.5-1.3-.5-.9 0-1.6.7-1.6 1.6v.1c0 .9.7 1.6 1.6 1.7h.1c.5 0 1.1-.2 1.4-.6l.4.7c-.5.5-1.2.8-1.9.8-1.4 0-2.4-1.1-2.4-2.4-.2-1.6.9-2.7 2.3-2.7M58.6 29.1c1.1 0 2 .9 2 2V31.7h-3.4c0 .9.7 1.5 1.5 1.6h.1c.5 0 1-.2 1.4-.5l.4.7c-.5.4-1.1.7-1.8.7-1.3.1-2.4-1-2.5-2.3v-.2c-.1-1.3.9-2.4 2.1-2.4.1-.2.2-.2.2-.2m1.2 1.9c.1-.6-.4-1.2-1-1.2h-.1c-.7 0-1.3.5-1.4 1.2h2.5zm-2.3-3.7h.7v.9h-.7v-.9zm1.5 0h.7v.9H59v-.9zM64 29.2h4.1v4.7h-.9V30h-2.3v3.9H64zM69.5 29.2h.8v.8c.3-.6.9-.9 1.6-.9 1.3 0 2 1 2 2.4.2 1.2-.7 2.3-1.9 2.4h-.2c-.6 0-1.1-.3-1.4-.8v2.5h-.9v-6.4zm2.2 4c.7 0 1.3-.6 1.3-1.7s-.5-1.7-1.3-1.7-1.3.5-1.3 1.7c-.1.9.4 1.7 1.3 1.7M77.2 29.1c1.3 0 2.4 1.2 2.4 2.5S78.4 34 77.1 34s-2.4-1.1-2.4-2.4c0-1.4 1.1-2.5 2.5-2.5m0 4.1c.9 0 1.7-.7 1.7-1.6s-.7-1.7-1.6-1.7-1.7.7-1.7 1.6v.1c0 .8.7 1.6 1.6 1.6M80.6 29.2h.9v3.9h1.7v-3.9h.9v3.9h1.7v-3.9h.9v3.9h.6V35h-.8v-1.1h-5.9zM90.3 29.1c1.1 0 2 .9 2 2V31.7h-3.4c0 .9.7 1.5 1.5 1.6h.1c.5 0 1-.2 1.4-.5l.4.7c-.5.4-1.1.7-1.8.7-1.3.1-2.4-1-2.5-2.3v-.2c-.1-1.3.9-2.4 2.1-2.4 0-.2.1-.2.2-.2m1.1 1.9c.1-.6-.4-1.2-1-1.2h-.1c-.7 0-1.3.5-1.4 1.2h2.5zM51.3 18.4c2.1 0 3.3-1.8 3.3-4.8s-1.2-4.8-3.3-4.8-3.4 1.7-3.4 4.8 1.3 4.8 3.4 4.8m5.8 6.6c-.1.1-.3.1-.4 0l-1-1.4c-1-1.4-2.7-2.2-4.4-2.1-4.2 0-6.9-3-6.9-7.9s2.7-7.9 6.9-7.9 6.8 3 6.8 7.9c0 2.5-.9 5-2.3 5.8-.3.1-.3.2 0 .3 1 .3 1.9 1 2.5 1.9l1 1.3c.1.1.1.3 0 .4L57.1 25zM60.8 6h2.9c.2 0 .3.1.3.3V21c0 .2-.1.3-.3.3h-2.9c-.2 0-.3-.1-.3-.3V6.3c0-.2.2-.3.3-.3zM84 16.6c-.4 1.5-.7 2.9-1 4.4 0 .1-.1.3-.3.3h-4c-.1 0-.3-.1-.3-.2-.2-1.2-.5-2.4-.8-3.6l-.6-2.9c-.1-.6-.3-1.5-.4-2.2 0-.3-.3-.3-.3 0-.1.8-.3 1.6-.4 2.2l-.7 2.8c-.3 1.2-.5 2.3-.8 3.6 0 .1-.1.3-.3.3h-3.9c-.1 0-.3-.1-.3-.2-.3-1.5-.6-2.9-1-4.4L66.2 6.3c-.1-.2 0-.3.2-.3h3c.2 0 .3.1.3.2l1.4 5.8c.4 1.6.6 3.1.8 4.7 0 .3.3.3.4 0 .2-1.6.5-3.2.9-4.7l1.6-5.8c.1-.2.2-.3.4-.2h2.5c.1 0 .3.1.3.2l1.6 5.8c.4 1.6.7 3.1.9 4.7 0 .3.3.3.4 0 .1-1.6.4-3.2.8-4.7l1.5-5.8c0-.1.1-.2.2-.2h3c.2 0 .3.1.2.3L84 16.6zM89 6h3c.2 0 .3.1.3.3V21c0 .2-.1.3-.3.3h-3c-.2 0-.3-.1-.3-.3V6.3c.1-.2.2-.3.3-.3zM38.6 39.3c.4.5-.2.9-.6.5-4.1-3.6-7.5-4.7-10.9-4.8-1.8 0-3.7.1-5.5.3l-1.1.1H20c-.7.1-1.3.1-2 .1-3.2 0-6.3-.8-9-2.3s-5-3.7-6.5-6.5C.8 24 0 21 0 17.9c0-3.2.8-6.3 2.4-9C5.5 3.4 11.3 0 17.7 0c3.2 0 6.3.8 9.1 2.3 2.7 1.5 5 3.8 6.6 6.5 1.6 2.7 2.4 5.8 2.4 9 0 1.2-.1 2.4-.4 3.6 0 .2-.1.4-.1.6s-.1.4-.2.6c-.5 1.5-1.2 2.9-2 4.3-.1.2-.2 0-.2-.1-.2-2.5-1.6-4.7-3.7-6.1l-.1-.1c-.4-.2-.7-.4-1.1-.6-.5-.2-1.1-.4-1.6-.6-.4-.1-1.1 0-.9-.3 1.3-.1 2.5-.1 3.8 0h.1c0-.4.1-.8.1-1.3.1-3.2-1.2-6.3-3.5-8.5C23.9 7.2 20.9 6 17.8 6c-3.1-.1-6.1 1.2-8.2 3.4-2.2 2.2-3.4 5.2-3.3 8.4-.1 3.1 1.2 6.2 3.4 8.3 2.1 2.2 5.1 3.5 8.1 3.4h.5v-.1c-.2-2.3-.2-4.3.3-3.5.2.3.3.5.5.8.6.8 1.2 1.6 1.9 2.4l.1.1c2.3 2.3 4.5 2.9 6.9 3.4l1.2.3c2.8.8 5.8 2 9.4 6.4m-7.8-14.1c-.4-.1-.6 0-.7.2-.2.6 0 1.2.3 1.7.4.6.7.9 1 .9.1 0 .2 0 .2-.1.2-.3.2-.7.1-1 0-.7-.4-1.3-.9-1.7m-4 2.9c-.3 0-.6.1-.8.4-.4.8-.2 1.7.5 2.2.3.3.8.4 1.2.4.4 0 .8-.2 1.1-.5.4-.6.2-1.4-.6-2-.5-.3-.9-.5-1.4-.5"/></g></symbol><symbol id="visa" viewBox="0 0 47.834 47.834"><path d="M19.153 16.799l-2.431 14.266h3.888l2.433-14.266zM13.462 16.815l-3.808 9.729-.406-1.469c-.751-1.77-2.883-4.312-5.386-5.914l3.482 11.897 4.114-.007 6.123-14.239-4.119.003z"/><path d="M7.772 17.836c-.226-.869-.881-1.128-1.694-1.159H.05l-.05.284c4.691 1.138 7.795 3.88 9.083 7.177l-1.311-6.302zM30.923 19.534a7.178 7.178 0 012.91.546l.351.165.526-3.092c-.77-.289-1.977-.599-3.483-.599-3.842 0-6.55 1.935-6.571 4.708-.025 2.049 1.929 3.193 3.405 3.876 1.515.7 2.023 1.145 2.016 1.77-.012.955-1.208 1.393-2.325 1.393-1.557 0-2.384-.215-3.661-.747l-.501-.228-.547 3.193c.91.399 2.589.742 4.332.76 4.087 0 6.743-1.912 6.771-4.875.017-1.621-1.02-2.858-3.267-3.873-1.36-.662-2.192-1.102-2.184-1.77 0-.593.706-1.227 2.228-1.227zM44.688 16.815h-3.004c-.933 0-1.627.254-2.037 1.184l-5.773 13.074h4.083s.666-1.758.817-2.143l4.979.006c.116.498.474 2.137.474 2.137h3.607l-3.146-14.258zm-4.795 9.195c.32-.819 1.549-3.987 1.549-3.987-.021.039.317-.825.518-1.362l.262 1.23.901 4.119h-3.23z"/></symbol><symbol id="vk" viewBox="0 0 548.358 548.358"><path d="M545.451 400.298c-.664-1.431-1.283-2.618-1.858-3.569-9.514-17.135-27.695-38.167-54.532-63.102l-.567-.571-.284-.28-.287-.287h-.288c-12.18-11.611-19.893-19.418-23.123-23.415-5.91-7.614-7.234-15.321-4.004-23.13 2.282-5.9 10.854-18.36 25.696-37.397 7.807-10.089 13.99-18.175 18.556-24.267 32.931-43.78 47.208-71.756 42.828-83.939l-1.701-2.847c-1.143-1.714-4.093-3.282-8.846-4.712-4.764-1.427-10.853-1.663-18.278-.712l-82.224.568c-1.332-.472-3.234-.428-5.712.144l-3.713.859-1.431.715-1.136.859c-.952.568-1.999 1.567-3.142 2.995-1.137 1.423-2.088 3.093-2.848 4.996-8.952 23.031-19.13 44.444-30.553 64.238-7.043 11.803-13.511 22.032-19.418 30.693-5.899 8.658-10.848 15.037-14.842 19.126-4 4.093-7.61 7.372-10.852 9.849-3.237 2.478-5.708 3.525-7.419 3.142-1.715-.383-3.33-.763-4.859-1.143-2.663-1.714-4.805-4.045-6.42-6.995-1.622-2.95-2.714-6.663-3.285-11.136-.568-4.476-.904-8.326-1-11.563-.089-3.233-.048-7.806.145-13.706.198-5.903.287-9.897.287-11.991 0-7.234.141-15.085.424-23.555.288-8.47.521-15.181.716-20.125.194-4.949.284-10.185.284-15.705s-.336-9.849-1-12.991a44.442 44.442 0 00-2.99-9.137c-1.335-2.95-3.289-5.232-5.853-6.852-2.569-1.618-5.763-2.902-9.564-3.856-10.089-2.283-22.936-3.518-38.547-3.71-35.401-.38-58.148 1.906-68.236 6.855-3.997 2.091-7.614 4.948-10.848 8.562-3.427 4.189-3.905 6.475-1.431 6.851 11.422 1.711 19.508 5.804 24.267 12.275l1.715 3.429c1.334 2.474 2.666 6.854 3.999 13.134 1.331 6.28 2.19 13.227 2.568 20.837.95 13.897.95 25.793 0 35.689-.953 9.9-1.853 17.607-2.712 23.127-.859 5.52-2.143 9.993-3.855 13.418-1.715 3.426-2.856 5.52-3.428 6.28-.571.76-1.047 1.239-1.425 1.427a21.387 21.387 0 01-7.71 1.431c-2.667 0-5.901-1.334-9.707-4-3.805-2.666-7.754-6.328-11.847-10.992-4.093-4.665-8.709-11.184-13.85-19.558-5.137-8.374-10.467-18.271-15.987-29.691l-4.567-8.282c-2.855-5.328-6.755-13.086-11.704-23.267-4.952-10.185-9.329-20.037-13.134-29.554-1.521-3.997-3.806-7.04-6.851-9.134l-1.429-.859c-.95-.76-2.475-1.567-4.567-2.427a30.301 30.301 0 00-6.567-1.854l-78.229.568c-7.994 0-13.418 1.811-16.274 5.428l-1.143 1.711c-.571.953-.859 2.475-.859 4.57 0 2.094.571 4.664 1.714 7.707 11.42 26.84 23.839 52.725 37.257 77.659 13.418 24.934 25.078 45.019 34.973 60.237 9.897 15.229 19.985 29.602 30.264 43.112 10.279 13.515 17.083 22.176 20.412 25.981 3.333 3.812 5.951 6.662 7.854 8.565l7.139 6.851c4.568 4.569 11.276 10.041 20.127 16.416 8.853 6.379 18.654 12.659 29.408 18.85 10.756 6.181 23.269 11.225 37.546 15.126 14.275 3.905 28.169 5.472 41.684 4.716h32.834c6.659-.575 11.704-2.669 15.133-6.283l1.136-1.431c.764-1.136 1.479-2.901 2.139-5.276.668-2.379 1-5 1-7.851-.195-8.183.428-15.558 1.852-22.124 1.423-6.564 3.045-11.513 4.859-14.846 1.813-3.33 3.859-6.14 6.136-8.418 2.282-2.283 3.908-3.666 4.862-4.142.948-.479 1.705-.804 2.276-.999 4.568-1.522 9.944-.048 16.136 4.429 6.187 4.473 11.99 9.996 17.418 16.56 5.425 6.57 11.943 13.941 19.555 22.124 7.617 8.186 14.277 14.271 19.985 18.274l5.708 3.426c3.812 2.286 8.761 4.38 14.853 6.283 6.081 1.902 11.409 2.378 15.984 1.427l73.087-1.14c7.229 0 12.854-1.197 16.844-3.572 3.998-2.379 6.373-5 7.139-7.851.764-2.854.805-6.092.145-9.712-.677-3.611-1.344-6.136-2.008-7.563z"/></symbol><symbol id="yandex-money" viewBox="0 0 144 40"><g id="base"><path class="st0" d="M6.9 20.8l-4 9H0l4.4-9.6c-2.1-1.1-3.4-3-3.4-6.5 0-4.9 3.1-7.4 6.8-7.4h3.8v23.5H9v-9H6.9zM9 8.4H7.7c-2 0-4 1.3-4 5.3s1.8 5 4 5H9V8.4zM23.8 13.2v16.6h-2.5v-7.4h-3.8v7.4h-2.6V13.2h2.6v7h3.8v-7h2.5zM37 33.1h-2.3v-3.3h-7.1V33h-2.3v-5.3h1c1.5-3.5 1.7-8.6 1.7-13v-1.5h7.7v14.5H37v5.4zm-3.9-17.8h-2.9v.3c0 3.5-.2 8.6-1.5 12.1h4.4V15.3zM44 30c-3.4 0-5.5-2.7-5.5-7.8 0-5.3 1.5-9.2 5-9.2 2.8 0 4.6 2.1 4.6 7.7v1.4h-6.9c0 3.8 1 5.7 3.1 5.7 1.2 0 2.3-.4 3.2-1.1l.6 2c-1.2.9-2.6 1.4-4.1 1.3zm-2.8-10h4.2c0-2.8-.5-4.9-1.9-4.9S41.3 17 41.2 20zm12 1.6v8.2h-2.5V13.2h2.6v7.7l4-7.7h2.6L55.7 21l4.7 8.8h-2.8l-4.4-8.2zm7.5 0c0-5.2 2-8.5 5.9-8.5 1.1 0 2.2.3 3.1.8l-.3 2.4c-.7-.7-1.7-1.1-2.7-1.2-1.8 0-3.2 2.1-3.2 6.2s1 6.5 3.1 6.5c1 0 2-.3 2.8-1l.6 1.9c-1 .8-2.2 1.3-3.4 1.2-3.7.1-5.8-2.7-5.9-8.3zM87.3 29.8h-10l-.3 3.9h-1.2v-5.3h.7c1.2-1 1.7-3.6 2-6.9s.5-8.7.6-15.2h8.2v22.1h1.6v5.3h-1.3l-.3-3.9zM85.6 7.6h-5.1c-.1 5.9-.3 10.5-.5 13.9s-.8 5.9-1.7 6.9h7.3V7.6zM95.6 28.8c1.3 0 2.6-.7 3.4-1.8l.5 1.3c-.9 1.2-2.4 1.9-3.9 1.9-3.5 0-5.1-3.2-5.1-8.6s2-8.6 4.8-8.6 4.7 3 4.2 8.9H92c.1 4.4 1.2 6.9 3.6 6.9zM92 20.6h6c.3-4.4-1.1-6.4-2.7-6.4s-3.1 2.2-3.3 6.4zM109.6 21.8H104v8h-1.5V13.2h1.5v7.3h5.7v-7.3h1.5v16.6h-1.5l-.1-8zM114.8 13.2h1.5v6.1h1.2c3.2 0 5.2 1.7 5.2 5.2s-2.2 5.3-5.3 5.3h-2.7V13.2h.1zm1.5 7.4v8h1c2.3 0 3.9-1.1 3.9-4s-1.4-4-3.8-4h-1.1zM126.9 14.5v15.3h-1.5V13.2h7v1.3h-5.5zM142.5 18.3c0-.8 0-1.5.1-2.3h-.1c-.2.7-.5 1.5-.9 2.1l-5.4 11.6H135V13.2h1.4v11.5c0 .9-.1 1.6-.1 2.3h.1c.2-.8.5-1.5.9-2.2l5.4-11.6h1.3v16.6h-1.5V18.3z"/></g></symbol></svg>