<svg version="1.1" id="Layer_1" xmlns="http://www.w3.org/2000/svg" x="0" y="0" viewBox="0 0 256 199" xml:space="preserve"><path class="st0" d="M46.5 198v-13.2c0-5-3.1-8.3-8.3-8.3-2.6 0-5.5.9-7.5 3.7-1.5-2.4-3.7-3.7-7-3.7-2.2 0-4.4.7-6.1 3.1V177H13v21h4.6v-11.6c0-3.7 2-5.5 5-5.5s4.6 2 4.6 5.5V198h4.6v-11.6c0-3.7 2.2-5.5 5-5.5 3.1 0 4.6 2 4.6 5.5V198h5.1zm68.3-21.1h-7.5v-6.4h-4.6v6.4h-4.2v4.2h4.2v9.7c0 4.8 2 7.7 7.2 7.7 2 0 4.2-.7 5.7-1.5l-1.3-4c-1.3.9-2.9 1.1-4 1.1-2.2 0-3.1-1.3-3.1-3.5v-9.4h7.5v-4.3h.1zm39.1-.4c-2.6 0-4.4 1.3-5.5 3.1V177h-4.6v21h4.6v-11.9c0-3.5 1.5-5.5 4.4-5.5.9 0 2 .2 2.9.4l1.3-4.4c-.9-.1-2.2-.1-3.1-.1zm-59.1 2.2c-2.2-1.5-5.3-2.2-8.6-2.2-5.3 0-8.8 2.6-8.8 6.8 0 3.5 2.6 5.5 7.2 6.1l2.2.2c2.4.4 3.7 1.1 3.7 2.2 0 1.5-1.8 2.6-4.8 2.6s-5.5-1.1-7-2.2l-2.2 3.5c2.4 1.8 5.7 2.6 9 2.6 6.1 0 9.7-2.9 9.7-6.8 0-3.7-2.9-5.7-7.2-6.4l-2.2-.2c-2-.2-3.5-.7-3.5-2 0-1.5 1.5-2.4 4-2.4 2.6 0 5.3 1.1 6.6 1.8l1.9-3.6zm122.5-2.2c-2.6 0-4.4 1.3-5.5 3.1V177h-4.6v21h4.6v-11.9c0-3.5 1.5-5.5 4.4-5.5.9 0 2 .2 2.9.4l1.3-4.4c-.9-.1-2.2-.1-3.1-.1zm-58.8 11c0 6.4 4.4 11 11.2 11 3.1 0 5.3-.7 7.5-2.4l-2.2-3.7c-1.8 1.3-3.5 2-5.5 2-3.7 0-6.4-2.6-6.4-6.8 0-4 2.6-6.6 6.4-6.8 2 0 3.7.7 5.5 2l2.2-3.7c-2.2-1.8-4.4-2.4-7.5-2.4-6.8-.2-11.2 4.4-11.2 10.8zm42.6 0V177h-4.6v2.6c-1.5-2-3.7-3.1-6.6-3.1-5.9 0-10.5 4.6-10.5 11s4.6 11 10.5 11c3.1 0 5.3-1.1 6.6-3.1v2.6h4.6v-10.5zm-16.9 0c0-3.7 2.4-6.8 6.4-6.8 3.7 0 6.4 2.9 6.4 6.8 0 3.7-2.6 6.8-6.4 6.8-4-.2-6.4-3.1-6.4-6.8zm-55.1-11c-6.1 0-10.5 4.4-10.5 11s4.4 11 10.8 11c3.1 0 6.1-.9 8.6-2.9l-2.2-3.3c-1.8 1.3-4 2.2-6.1 2.2-2.9 0-5.7-1.3-6.4-5h15.6v-1.8c.1-6.8-3.9-11.2-9.8-11.2zm0 3.9c2.9 0 4.8 1.8 5.3 5h-11c.4-2.8 2.4-5 5.7-5zm114.4 7.1v-18.9h-4.6v11c-1.5-2-3.7-3.1-6.6-3.1-5.9 0-10.5 4.6-10.5 11s4.6 11 10.5 11c3.1 0 5.3-1.1 6.6-3.1v2.6h4.6v-10.5zm-17 0c0-3.7 2.4-6.8 6.4-6.8 3.7 0 6.4 2.9 6.4 6.8 0 3.7-2.6 6.8-6.4 6.8-3.9-.2-6.4-3.1-6.4-6.8zm-154.1 0V177h-4.6v2.6c-1.5-2-3.7-3.1-6.6-3.1-5.9 0-10.5 4.6-10.5 11s4.6 11 10.5 11c3.1 0 5.3-1.1 6.6-3.1v2.6h4.6v-10.5zm-17.1 0c0-3.7 2.4-6.8 6.4-6.8 3.7 0 6.4 2.9 6.4 6.8 0 3.7-2.6 6.8-6.4 6.8-4-.2-6.4-3.1-6.4-6.8z"/><path d="M93.3 16.9h69.2v124.3H93.3z"/><path d="M97.7 79c0-25.2 11.9-47.6 30.1-62.1C114.4 6.4 97.5 0 79 0 35.3 0 0 35.3 0 79s35.3 79 79 79c18.4 0 35.3-6.4 48.7-16.9-18.2-14.2-30-36.8-30-62.1z"/><path class="st0" d="M255.7 79c0 43.7-35.3 79-79 79-18.4 0-35.3-6.4-48.7-16.9 18.4-14.5 30.1-36.9 30.1-62.1S146.2 31.4 128 16.9C141.4 6.4 158.3 0 176.7 0c43.7 0 79 35.6 79 79z"/></svg>
