<svg version="1.1" id="Слой_1" xmlns="http://www.w3.org/2000/svg" x="0" y="0" viewBox="0 0 92.3 40" xml:space="preserve"><g id="base"><path class="st0" d="M46.9 29.2h1.9c.9 0 1.6.4 1.6 1.2 0 .4-.3.8-.7 1 .5.1.9.6.9 1.1 0 .9-.7 1.3-1.7 1.3h-2v-4.6zm1.8 2c.5 0 .8-.3.8-.7s-.3-.6-.8-.6h-.8v1.4l.8-.1zm0 2.1c.7 0 1-.3 1-.7s-.3-.7-1-.7h-1v1.5l1-.1zM53.9 29.1c.7 0 1.3.2 1.8.7l-.4.6c-.3-.3-.8-.5-1.3-.5-.9 0-1.6.7-1.6 1.6v.1c0 .9.7 1.6 1.6 1.7h.1c.5 0 1.1-.2 1.4-.6l.4.7c-.5.5-1.2.8-1.9.8-1.4 0-2.4-1.1-2.4-2.4-.2-1.6.9-2.7 2.3-2.7M58.6 29.1c1.1 0 2 .9 2 2V31.7h-3.4c0 .9.7 1.5 1.5 1.6h.1c.5 0 1-.2 1.4-.5l.4.7c-.5.4-1.1.7-1.8.7-1.3.1-2.4-1-2.5-2.3v-.2c-.1-1.3.9-2.4 2.1-2.4.1-.2.2-.2.2-.2m1.2 1.9c.1-.6-.4-1.2-1-1.2h-.1c-.7 0-1.3.5-1.4 1.2h2.5zm-2.3-3.7h.7v.9h-.7v-.9zm1.5 0h.7v.9H59v-.9zM64 29.2h4.1v4.7h-.9V30h-2.3v3.9H64zM69.5 29.2h.8v.8c.3-.6.9-.9 1.6-.9 1.3 0 2 1 2 2.4.2 1.2-.7 2.3-1.9 2.4h-.2c-.6 0-1.1-.3-1.4-.8v2.5h-.9v-6.4zm2.2 4c.7 0 1.3-.6 1.3-1.7s-.5-1.7-1.3-1.7-1.3.5-1.3 1.7c-.1.9.4 1.7 1.3 1.7M77.2 29.1c1.3 0 2.4 1.2 2.4 2.5S78.4 34 77.1 34s-2.4-1.1-2.4-2.4c0-1.4 1.1-2.5 2.5-2.5m0 4.1c.9 0 1.7-.7 1.7-1.6s-.7-1.7-1.6-1.7-1.7.7-1.7 1.6v.1c0 .8.7 1.6 1.6 1.6M80.6 29.2h.9v3.9h1.7v-3.9h.9v3.9h1.7v-3.9h.9v3.9h.6V35h-.8v-1.1h-5.9zM90.3 29.1c1.1 0 2 .9 2 2V31.7h-3.4c0 .9.7 1.5 1.5 1.6h.1c.5 0 1-.2 1.4-.5l.4.7c-.5.4-1.1.7-1.8.7-1.3.1-2.4-1-2.5-2.3v-.2c-.1-1.3.9-2.4 2.1-2.4 0-.2.1-.2.2-.2m1.1 1.9c.1-.6-.4-1.2-1-1.2h-.1c-.7 0-1.3.5-1.4 1.2h2.5zM51.3 18.4c2.1 0 3.3-1.8 3.3-4.8s-1.2-4.8-3.3-4.8-3.4 1.7-3.4 4.8 1.3 4.8 3.4 4.8m5.8 6.6c-.1.1-.3.1-.4 0l-1-1.4c-1-1.4-2.7-2.2-4.4-2.1-4.2 0-6.9-3-6.9-7.9s2.7-7.9 6.9-7.9 6.8 3 6.8 7.9c0 2.5-.9 5-2.3 5.8-.3.1-.3.2 0 .3 1 .3 1.9 1 2.5 1.9l1 1.3c.1.1.1.3 0 .4L57.1 25zM60.8 6h2.9c.2 0 .3.1.3.3V21c0 .2-.1.3-.3.3h-2.9c-.2 0-.3-.1-.3-.3V6.3c0-.2.2-.3.3-.3zM84 16.6c-.4 1.5-.7 2.9-1 4.4 0 .1-.1.3-.3.3h-4c-.1 0-.3-.1-.3-.2-.2-1.2-.5-2.4-.8-3.6l-.6-2.9c-.1-.6-.3-1.5-.4-2.2 0-.3-.3-.3-.3 0-.1.8-.3 1.6-.4 2.2l-.7 2.8c-.3 1.2-.5 2.3-.8 3.6 0 .1-.1.3-.3.3h-3.9c-.1 0-.3-.1-.3-.2-.3-1.5-.6-2.9-1-4.4L66.2 6.3c-.1-.2 0-.3.2-.3h3c.2 0 .3.1.3.2l1.4 5.8c.4 1.6.6 3.1.8 4.7 0 .3.3.3.4 0 .2-1.6.5-3.2.9-4.7l1.6-5.8c.1-.2.2-.3.4-.2h2.5c.1 0 .3.1.3.2l1.6 5.8c.4 1.6.7 3.1.9 4.7 0 .3.3.3.4 0 .1-1.6.4-3.2.8-4.7l1.5-5.8c0-.1.1-.2.2-.2h3c.2 0 .3.1.2.3L84 16.6zM89 6h3c.2 0 .3.1.3.3V21c0 .2-.1.3-.3.3h-3c-.2 0-.3-.1-.3-.3V6.3c.1-.2.2-.3.3-.3zM38.6 39.3c.4.5-.2.9-.6.5-4.1-3.6-7.5-4.7-10.9-4.8-1.8 0-3.7.1-5.5.3l-1.1.1H20c-.7.1-1.3.1-2 .1-3.2 0-6.3-.8-9-2.3s-5-3.7-6.5-6.5C.8 24 0 21 0 17.9c0-3.2.8-6.3 2.4-9C5.5 3.4 11.3 0 17.7 0c3.2 0 6.3.8 9.1 2.3 2.7 1.5 5 3.8 6.6 6.5 1.6 2.7 2.4 5.8 2.4 9 0 1.2-.1 2.4-.4 3.6 0 .2-.1.4-.1.6s-.1.4-.2.6c-.5 1.5-1.2 2.9-2 4.3-.1.2-.2 0-.2-.1-.2-2.5-1.6-4.7-3.7-6.1l-.1-.1c-.4-.2-.7-.4-1.1-.6-.5-.2-1.1-.4-1.6-.6-.4-.1-1.1 0-.9-.3 1.3-.1 2.5-.1 3.8 0h.1c0-.4.1-.8.1-1.3.1-3.2-1.2-6.3-3.5-8.5C23.9 7.2 20.9 6 17.8 6c-3.1-.1-6.1 1.2-8.2 3.4-2.2 2.2-3.4 5.2-3.3 8.4-.1 3.1 1.2 6.2 3.4 8.3 2.1 2.2 5.1 3.5 8.1 3.4h.5v-.1c-.2-2.3-.2-4.3.3-3.5.2.3.3.5.5.8.6.8 1.2 1.6 1.9 2.4l.1.1c2.3 2.3 4.5 2.9 6.9 3.4l1.2.3c2.8.8 5.8 2 9.4 6.4m-7.8-14.1c-.4-.1-.6 0-.7.2-.2.6 0 1.2.3 1.7.4.6.7.9 1 .9.1 0 .2 0 .2-.1.2-.3.2-.7.1-1 0-.7-.4-1.3-.9-1.7m-4 2.9c-.3 0-.6.1-.8.4-.4.8-.2 1.7.5 2.2.3.3.8.4 1.2.4.4 0 .8-.2 1.1-.5.4-.6.2-1.4-.6-2-.5-.3-.9-.5-1.4-.5"/></g></svg>
