<svg version="1.1" id="Слой_1" xmlns="http://www.w3.org/2000/svg" x="0" y="0" viewBox="0 0 144 40" xml:space="preserve"><g id="base"><path class="st0" d="M6.9 20.8l-4 9H0l4.4-9.6c-2.1-1.1-3.4-3-3.4-6.5 0-4.9 3.1-7.4 6.8-7.4h3.8v23.5H9v-9H6.9zM9 8.4H7.7c-2 0-4 1.3-4 5.3s1.8 5 4 5H9V8.4zM23.8 13.2v16.6h-2.5v-7.4h-3.8v7.4h-2.6V13.2h2.6v7h3.8v-7h2.5zM37 33.1h-2.3v-3.3h-7.1V33h-2.3v-5.3h1c1.5-3.5 1.7-8.6 1.7-13v-1.5h7.7v14.5H37v5.4zm-3.9-17.8h-2.9v.3c0 3.5-.2 8.6-1.5 12.1h4.4V15.3zM44 30c-3.4 0-5.5-2.7-5.5-7.8 0-5.3 1.5-9.2 5-9.2 2.8 0 4.6 2.1 4.6 7.7v1.4h-6.9c0 3.8 1 5.7 3.1 5.7 1.2 0 2.3-.4 3.2-1.1l.6 2c-1.2.9-2.6 1.4-4.1 1.3zm-2.8-10h4.2c0-2.8-.5-4.9-1.9-4.9S41.3 17 41.2 20zm12 1.6v8.2h-2.5V13.2h2.6v7.7l4-7.7h2.6L55.7 21l4.7 8.8h-2.8l-4.4-8.2zm7.5 0c0-5.2 2-8.5 5.9-8.5 1.1 0 2.2.3 3.1.8l-.3 2.4c-.7-.7-1.7-1.1-2.7-1.2-1.8 0-3.2 2.1-3.2 6.2s1 6.5 3.1 6.5c1 0 2-.3 2.8-1l.6 1.9c-1 .8-2.2 1.3-3.4 1.2-3.7.1-5.8-2.7-5.9-8.3zM87.3 29.8h-10l-.3 3.9h-1.2v-5.3h.7c1.2-1 1.7-3.6 2-6.9s.5-8.7.6-15.2h8.2v22.1h1.6v5.3h-1.3l-.3-3.9zM85.6 7.6h-5.1c-.1 5.9-.3 10.5-.5 13.9s-.8 5.9-1.7 6.9h7.3V7.6zM95.6 28.8c1.3 0 2.6-.7 3.4-1.8l.5 1.3c-.9 1.2-2.4 1.9-3.9 1.9-3.5 0-5.1-3.2-5.1-8.6s2-8.6 4.8-8.6 4.7 3 4.2 8.9H92c.1 4.4 1.2 6.9 3.6 6.9zM92 20.6h6c.3-4.4-1.1-6.4-2.7-6.4s-3.1 2.2-3.3 6.4zM109.6 21.8H104v8h-1.5V13.2h1.5v7.3h5.7v-7.3h1.5v16.6h-1.5l-.1-8zM114.8 13.2h1.5v6.1h1.2c3.2 0 5.2 1.7 5.2 5.2s-2.2 5.3-5.3 5.3h-2.7V13.2h.1zm1.5 7.4v8h1c2.3 0 3.9-1.1 3.9-4s-1.4-4-3.8-4h-1.1zM126.9 14.5v15.3h-1.5V13.2h7v1.3h-5.5zM142.5 18.3c0-.8 0-1.5.1-2.3h-.1c-.2.7-.5 1.5-.9 2.1l-5.4 11.6H135V13.2h1.4v11.5c0 .9-.1 1.6-.1 2.3h.1c.2-.8.5-1.5.9-2.2l5.4-11.6h1.3v16.6h-1.5V18.3z"/></g></svg>
